<?xml version="1.0" encoding="UTF-8" standalone="no"?>
<!-- Created with Inkscape (http://www.inkscape.org/) -->

<svg
   xmlns:dc="http://purl.org/dc/elements/1.1/"
   xmlns:cc="http://creativecommons.org/ns#"
   xmlns:rdf="http://www.w3.org/1999/02/22-rdf-syntax-ns#"
   xmlns:svg="http://www.w3.org/2000/svg"
   xmlns="http://www.w3.org/2000/svg"
   xmlns:sodipodi="http://sodipodi.sourceforge.net/DTD/sodipodi-0.dtd"
   xmlns:inkscape="http://www.inkscape.org/namespaces/inkscape"
   sodipodi:docname="logo4.svg"
   inkscape:version="0.47 r22583"
   version="1.1"
   id="svg2"
   height="1052.3622047"
   width="744.09448819"
   inkscape:export-filename="C:\gsim\gsim-cmatrix\images\startlogo.png"
   inkscape:export-xdpi="87.321327"
   inkscape:export-ydpi="87.321327">
  <sodipodi:namedview
     id="base"
     pagecolor="#ffffff"
     bordercolor="#666666"
     borderopacity="1.0"
     inkscape:pageopacity="0.0"
     inkscape:pageshadow="2"
     inkscape:zoom="0.98994949"
     inkscape:cx="328.8887"
     inkscape:cy="791.19422"
     inkscape:document-units="px"
     inkscape:current-layer="layer1"
     showgrid="false"
     inkscape:window-width="1173"
     inkscape:window-height="779"
     inkscape:window-x="154"
     inkscape:window-y="203"
     inkscape:window-maximized="0" />
  <defs
     id="defs4">
    <inkscape:perspective
       sodipodi:type="inkscape:persp3d"
       inkscape:vp_x="0 : 526.18109 : 1"
       inkscape:vp_y="0 : 1000 : 0"
       inkscape:vp_z="744.09448 : 526.18109 : 1"
       inkscape:persp3d-origin="372.04724 : 350.78739 : 1"
       id="perspective10" />
    <filter
       id="filter3197"
       inkscape:label="Eroded metal"
       inkscape:menu="Materials"
       inkscape:menu-tooltip="Eroded metal texture with ridges, grooves, holes and bumps"
       height="1"
       width="1"
       y="0"
       x="0"
       color-interpolation-filters="sRGB">
      <feColorMatrix
         id="feColorMatrix3199"
         type="luminanceToAlpha"
         result="fbSourceGraphic" />
      <feFlood
         id="feFlood3201"
         flood-color="rgb(134,39,24)"
         result="result1"
         in="fbSourceGraphic"
         flood-opacity="1" />
      <feComposite
         id="feComposite3203"
         in2="fbSourceGraphic"
         operator="out"
         result="result2" />
      <feComposite
         id="feComposite3205"
         in2="SourceGraphic"
         operator="in"
         result="fbSourceGraphic" />
      <feColorMatrix
         result="fbSourceGraphicAlpha"
         in="fbSourceGraphic"
         values="0 0 0 -1 0 0 0 0 -1 0 0 0 0 -1 0 0 0 0 1 0"
         id="feColorMatrix3207" />
      <feGaussianBlur
         id="feGaussianBlur3209"
         result="result0"
         in="fbSourceGraphic"
         stdDeviation="1" />
      <feTurbulence
         id="feTurbulence3211"
         type="turbulence"
         baseFrequency="0.057"
         seed="4"
         numOctaves="4"
         result="result1" />
      <feDisplacementMap
         id="feDisplacementMap3213"
         in2="result1"
         xChannelSelector="R"
         result="result91" />
      <feComposite
         id="feComposite3215"
         in2="result91"
         result="result2"
         operator="out"
         in="result0" />
      <feComposite
         id="feComposite3217"
         in2="result2"
         k1="0.1"
         k3="1.2"
         in="fbSourceGraphicAlpha"
         operator="arithmetic"
         result="result5" />
      <feBlend
         id="feBlend3219"
         in2="result5"
         result="fbSourceGraphic"
         mode="multiply" />
      <feGaussianBlur
         id="feGaussianBlur3221"
         stdDeviation="3"
         in="fbSourceGraphic"
         result="result0" />
      <feSpecularLighting
         id="feSpecularLighting3223"
         in="result0"
         result="result1"
         lighting-color="rgb(254,230,93)"
         surfaceScale="3"
         specularConstant="0.4"
         specularExponent="15">
        <fePointLight
           id="fePointLight3225"
           x="-5000"
           y="-10000"
           z="20000" />
      </feSpecularLighting>
      <feComposite
         id="feComposite3227"
         in2="fbSourceGraphic"
         in="result1"
         result="result2"
         operator="in" />
      <feComposite
         id="feComposite3229"
         in2="result2"
         k1="-1"
         in="fbSourceGraphic"
         result="result4"
         operator="arithmetic"
         k2="2.5"
         k3="3.5" />
      <feBlend
         id="feBlend3231"
         in2="result4"
         mode="multiply" />
    </filter>
    <inkscape:perspective
       id="perspective3290"
       inkscape:persp3d-origin="0.5 : 0.33333333 : 1"
       inkscape:vp_z="1 : 0.5 : 1"
       inkscape:vp_y="0 : 1000 : 0"
       inkscape:vp_x="0 : 0.5 : 1"
       sodipodi:type="inkscape:persp3d" />
    <filter
       id="filter3316"
       inkscape:label="Gold splatter"
       x="-0.25"
       y="-0.25"
       height="1.5"
       width="1.5"
       inkscape:menu="Materials"
       inkscape:menu-tooltip="Splattered cast metal, with golden highlights"
       color-interpolation-filters="sRGB">
      <feGaussianBlur
         id="feGaussianBlur3318"
         in="SourceAlpha"
         stdDeviation="1"
         result="result91" />
      <feComposite
         id="feComposite3320"
         in2="result91"
         result="fbSourceGraphic"
         operator="in"
         in="SourceGraphic" />
      <feColorMatrix
         id="feColorMatrix3322"
         values="0"
         in="fbSourceGraphic"
         result="fbSourceGraphicAlpha"
         type="saturate" />
      <feGaussianBlur
         id="feGaussianBlur3324"
         result="result1"
         in="fbSourceGraphic"
         stdDeviation="1" />
      <feTurbulence
         id="feTurbulence3326"
         result="result0"
         numOctaves="7"
         baseFrequency="0.074 0.084"
         type="fractalNoise" />
      <feDisplacementMap
         id="feDisplacementMap3328"
         in2="result0"
         result="result2"
         scale="80"
         yChannelSelector="G"
         xChannelSelector="A"
         in="result1" />
      <feColorMatrix
         id="feColorMatrix3330"
         type="saturate"
         values="1"
         result="result3" />
      <feGaussianBlur
         id="feGaussianBlur3332"
         result="result4"
         in="fbSourceGraphic"
         stdDeviation="1" />
      <feComposite
         id="feComposite3334"
         in2="result3"
         operator="atop"
         result="fbSourceGraphic"
         in="result4" />
      <feColorMatrix
         id="feColorMatrix3336"
         values="0 0 0 -1 0 0 0 0 -1 0 0 0 0 -1 0 0 0 0 1 0"
         in="fbSourceGraphic"
         result="fbSourceGraphicAlpha" />
      <feGaussianBlur
         id="feGaussianBlur3338"
         result="result0"
         in="fbSourceGraphic"
         stdDeviation="1" />
      <feTurbulence
         id="feTurbulence3340"
         baseFrequency="0.062"
         seed="488"
         numOctaves="8"
         result="result1"
         type="fractalNoise" />
      <feComposite
         id="feComposite3342"
         in2="result1"
         result="result2"
         operator="out"
         in="result0" />
      <feSpecularLighting
         id="feSpecularLighting3344"
         lighting-color="rgb(244,200,40)"
         surfaceScale="2"
         result="result4"
         specularConstant="2"
         specularExponent="40"
         in="result2">
        <feDistantLight
           id="feDistantLight3346"
           elevation="62"
           azimuth="225" />
      </feSpecularLighting>
      <feComposite
         id="feComposite3348"
         in2="result2"
         in="result4"
         operator="atop"
         result="result92" />
      <feBlend
         id="feBlend3350"
         in2="result92"
         mode="multiply" />
    </filter>
    <filter
       id="filter3563"
       inkscape:menu-tooltip="3D warped, iridescent pearly shell texture"
       inkscape:menu="Materials"
       inkscape:label="Drop shadow"
       width="1.5"
       x="-.25"
       height="1.5"
       y="-.25"
       color-interpolation-filters="sRGB">
      <feGaussianBlur
         id="feGaussianBlur3565"
         result="result8"
         stdDeviation="3" />
      <feTurbulence
         id="feTurbulence3567"
         baseFrequency="0.03 0.03"
         numOctaves="8"
         type="fractalNoise"
         result="result7"
         seed="77" />
      <feColorMatrix
         id="feColorMatrix3569"
         values="1 0 0 0 0 0 1 0 0 0 0 0 1 0 0 0 0 0 1.6 -0.6 "
         result="result5" />
      <feComposite
         id="feComposite3571"
         in2="result8"
         operator="in"
         in="result7"
         result="result6" />
      <feDisplacementMap
         id="feDisplacementMap3573"
         in2="result6"
         result="result4"
         scale="60"
         yChannelSelector="A"
         xChannelSelector="A"
         in="result5" />
      <feConvolveMatrix
         id="feConvolveMatrix3575"
         order="3 3"
         kernelMatrix="2 0 0 0 4 0 0 0 -2 "
         targetX="2"
         targetY="2"
         divisor="2"
         result="result9" />
      <feComposite
         id="feComposite3577"
         in2="SourceGraphic"
         operator="atop"
         in="result9"
         result="result10" />
      <feBlend
         id="feBlend3579"
         in2="result10"
         mode="darken"
         result="fbSourceGraphic" />
      <feGaussianBlur
         id="feGaussianBlur3581"
         result="result0"
         in="fbSourceGraphic"
         stdDeviation="5" />
      <feSpecularLighting
         id="feSpecularLighting3583"
         specularExponent="25"
         specularConstant="1"
         surfaceScale="5"
         lighting-color="rgb(242,215,108)"
         result="result1"
         in="result0">
        <feDistantLight
           id="feDistantLight3585"
           azimuth="235"
           elevation="60" />
      </feSpecularLighting>
      <feComposite
         id="feComposite3587"
         in2="fbSourceGraphic"
         operator="in"
         result="result2"
         in="result1" />
      <feComposite
         id="feComposite3589"
         in2="result2"
         k3="1"
         k2="1"
         operator="arithmetic"
         result="fbSourceGraphic"
         in="fbSourceGraphic" />
      <feColorMatrix
         result="fbSourceGraphicAlpha"
         in="fbSourceGraphic"
         values="0 0 0 -1 0 0 0 0 -1 0 0 0 0 -1 0 0 0 0 1 0"
         id="feColorMatrix3661" />
      <feGaussianBlur
         id="feGaussianBlur3663"
         in="fbSourceGraphicAlpha"
         stdDeviation="2.000000"
         result="blur" />
      <feColorMatrix
         id="feColorMatrix3665"
         result="bluralpha"
         type="matrix"
         values="1 0 0 0 0 0 1 0 0 0 0 0 1 0 0 0 0 0 0.500000 0 " />
      <feOffset
         id="feOffset3667"
         in="bluralpha"
         dx="21.299999"
         dy="20.900000"
         result="offsetBlur" />
      <feMerge
         id="feMerge3669">
        <feMergeNode
           id="feMergeNode3671"
           in="offsetBlur" />
        <feMergeNode
           id="feMergeNode3673"
           in="fbSourceGraphic" />
      </feMerge>
    </filter>
    <filter
       id="filter3426"
       inkscape:label="Metallized paint"
       inkscape:menu="Materials"
       inkscape:menu-tooltip="Metallized effect with a soft lighting, slightly translucent at the edges"
       height="1.1"
       width="1.1"
       y="-0.05"
       x="-0.05"
       color-interpolation-filters="sRGB">
      <feGaussianBlur
         id="feGaussianBlur3428"
         stdDeviation="1"
         result="result1" />
      <feComposite
         id="feComposite3430"
         in2="result1"
         in="result1"
         result="result4"
         operator="in" />
      <feBlend
         id="feBlend3432"
         in2="result4"
         in="result1"
         mode="screen"
         result="result5" />
      <feGaussianBlur
         id="feGaussianBlur3434"
         stdDeviation="8"
         result="result6"
         in="result5" />
      <feComposite
         id="feComposite3436"
         in2="result5"
         operator="atop"
         in="result6"
         result="result8" />
      <feComposite
         id="feComposite3438"
         in2="result8"
         operator="in"
         result="fbSourceGraphic"
         in="result6" />
      <feGaussianBlur
         id="feGaussianBlur3440"
         result="result0"
         in="fbSourceGraphic"
         stdDeviation="2.5" />
      <feSpecularLighting
         id="feSpecularLighting3442"
         specularExponent="45"
         specularConstant="1.5"
         surfaceScale="1"
         lighting-color="rgb(255,255,255)"
         result="result1"
         in="result0">
        <fePointLight
           id="fePointLight3444"
           z="21000"
           y="-9000"
           x="-6000" />
      </feSpecularLighting>
      <feComposite
         id="feComposite3446"
         in2="fbSourceGraphic"
         operator="in"
         result="result2"
         in="result1" />
      <feComposite
         id="feComposite3448"
         in2="result2"
         k3="1"
         k2="1"
         operator="arithmetic"
         result="result4"
         in="fbSourceGraphic" />
      <feComposite
         id="feComposite3450"
         in2="result4"
         operator="in"
         in="result9"
         result="result91" />
      <feBlend
         id="feBlend3452"
         in2="result91"
         mode="multiply" />
    </filter>
  </defs>
  <metadata
     id="metadata7">
    <rdf:RDF>
      <cc:Work
         rdf:about="">
        <dc:format>image/svg+xml</dc:format>
        <dc:type
           rdf:resource="http://purl.org/dc/dcmitype/StillImage" />
        <dc:title></dc:title>
      </cc:Work>
    </rdf:RDF>
  </metadata>
  <g
     inkscape:label="Layer 1"
     inkscape:groupmode="layer"
     id="layer1">
    <g
       transform="translate(-3.3582257,-0.95726857)"
       style="font-size:144px;font-style:normal;font-variant:normal;font-weight:normal;font-stretch:normal;text-align:start;line-height:100%;writing-mode:lr-tb;text-anchor:start;fill:#000000;fill-opacity:1;stroke:none;filter:url(#filter3316);font-family:Book Antiqua;-inkscape-font-specification:Book Antiqua"
       id="text3233-1">
      <path
         d="m 103.60862,195.89209 c 0.075,-7.74583 1.94093,-13.92575 5.59793,-18.53976 3.6569,-4.61386 8.65483,-6.97782 14.9938,-7.09191 6.31897,0.24719 11.08868,1.97695 14.30915,5.18927 3.22032,3.21248 6.14473,6.42488 8.77322,9.63721 2.62833,3.21247 6.21405,4.94222 10.7572,5.18927 3.87585,-0.15294 6.74381,-1.64692 8.60389,-4.48195 1.85987,-2.83489 2.78385,-6.09285 2.77196,-9.77387 -0.0361,-4.13087 -1.29609,-8.7208 -3.77995,-13.76983 -2.48407,-5.04883 -5.97602,-7.8028 -10.47586,-8.26189 -1.34408,0.0901 -2.83206,0.4501 -4.46395,1.07999 -1.63206,0.63009 -3.12004,0.99008 -4.46394,1.07999 -1.81806,-0.1619 -4.59002,-0.80989 -8.3159,-1.94398 -3.72602,-1.13389 -8.72995,-1.78188 -15.0118,-1.94397 -15.83984,0.26709 -29.123656,5.13303 -39.851489,14.59781 -10.727873,9.46495 -16.307794,21.92678 -16.739782,37.38552 0.140438,10.67279 2.819512,19.96688 8.037228,27.8823 5.217694,7.91547 12.131376,14.06294 20.741066,18.44243 8.609627,4.3795 18.072607,6.60169 28.388967,6.66658 10.52679,0.018 20.10866,-2.53796 28.74563,-7.6679 8.63679,-5.12992 14.51071,-12.94181 17.62178,-23.4357 0.41688,-1.81494 0.91488,-3.04493 1.49398,-3.68995 0.57888,-0.64496 1.76086,-1.04695 3.54595,-1.20598 1.78787,-0.30596 3.32385,-1.06195 4.60794,-2.26797 1.28387,-1.20595 1.95586,-2.75393 2.01598,-4.64394 0.14743,-1.46039 -0.32367,-3.09948 -1.41332,-4.91728 -1.08988,-1.8177 -3.68362,-3.40346 -7.78123,-4.75727 -4.09784,-1.35371 -10.58486,-2.06481 -19.46109,-2.1333 -2.67116,-0.0559 -6.27289,0.13605 -10.80519,0.57599 -4.53246,0.44005 -8.65685,1.46403 -12.37318,3.07196 -3.71646,1.60803 -5.68621,4.13599 -5.90925,7.5839 0.1866,4.11643 1.49325,6.36351 3.91995,6.74125 2.42656,0.37781 4.8532,0.68358 7.2799,0.91732 2.42656,0.23381 3.73321,2.19289 3.91995,5.87726 -0.0511,2.63999 -0.88506,4.77596 -2.50196,6.40791 -1.61705,1.632 -3.71103,2.47199 -6.28192,2.51997 -3.22847,0.0516 -6.88353,-1.23551 -10.96519,-3.86128 -4.08178,-2.62572 -7.65151,-6.89944 -10.7092,-12.82117 -3.05778,-5.92166 -4.66487,-13.80066 -4.82127,-23.63703 z"
         style="font-family:Cooper Std Black;-inkscape-font-specification:Cooper Std Black"
         id="path3238-7" />
      <path
         d="m 202.39064,211.2999 c 5.47279,4.09687 10.92694,7.00705 16.36246,8.73055 5.43544,1.72356 9.98293,3.3111 13.64249,4.7626 3.65945,1.45157 5.56165,3.81776 5.70659,7.09858 -0.26405,2.68799 -1.71603,4.54796 -4.35594,5.57993 -2.64002,1.032 -4.88399,1.52399 -6.73191,1.47598 -8.58393,-0.28264 -14.77584,-2.26128 -18.57576,-5.93592 -3.79998,-3.6746 -6.69594,-7.34921 -8.6879,-11.02386 -1.99199,-3.67459 -4.56795,-5.65323 -7.72789,-5.93593 -2.14198,0.081 -3.68996,0.89103 -4.64395,2.42997 -0.95399,1.53902 -1.42198,3.32099 -1.40398,5.34593 -0.006,4.07398 0.83399,8.92191 2.51997,14.54382 1.68597,5.62194 4.25393,9.60588 7.7039,11.95184 4.41293,2.24098 9.91485,3.95095 16.50579,5.12993 6.59088,1.17899 12.4168,1.77298 17.47778,1.78198 16.65272,-0.44099 28.74255,-4.31094 36.26953,-11.60985 7.52681,-7.29889 11.22876,-15.38077 11.10586,-24.24568 -1e-4,-5.3519 -1.11608,-9.94783 -3.34796,-13.78783 -2.23207,-3.8399 -5.58002,-7.21185 -10.04387,-10.11587 -5.70845,-3.51989 -11.33148,-5.99986 -16.86912,-7.4399 -5.53777,-1.43992 -10.14748,-2.89589 -13.82916,-4.36794 -3.68177,-1.47192 -5.59286,-4.01588 -5.73325,-7.63191 0.10495,-2.56789 1.08294,-4.41586 2.93396,-5.54393 1.85092,-1.1279 3.94489,-1.67989 6.28192,-1.65597 4.90921,0.20274 9.02649,1.62139 12.35184,4.25594 3.32522,2.63471 6.35451,5.26934 9.08788,7.9039 2.73322,2.6347 5.66652,4.05335 8.79989,4.25594 2.68488,-0.10193 4.76685,-1.12191 6.24592,-3.05996 1.47888,-1.9379 2.22887,-4.18187 2.24997,-6.73191 -0.35409,-6.23983 -2.38206,-11.54376 -6.08392,-15.9118 -3.70204,-4.36784 -6.95399,-6.64781 -9.75588,-6.83991 -1.49105,0.0721 -2.79303,0.3601 -3.90595,0.86399 -1.11305,0.50409 -2.16304,0.79209 -3.14996,0.86399 -1.27505,-0.1739 -4.01701,-0.86989 -8.2259,-2.08797 -4.209,-1.21789 -8.71494,-1.91388 -13.51782,-2.08797 -13.98585,0.46209 -24.53371,4.18204 -31.64359,11.15985 -7.10992,6.97799 -10.67387,14.44189 -10.69186,22.39171 0.075,5.202 1.36497,9.95394 3.86995,14.25582 2.50496,4.30199 5.77491,8.04594 9.80987,11.23186 z"
         style="font-family:Cooper Std Black;-inkscape-font-specification:Cooper Std Black"
         id="path3240-4" />
      <path
         d="m 324.46408,188.40419 c 0.0839,-1.58691 -0.12005,-3.02089 -0.612,-4.30195 -0.49203,-1.28091 -1.77601,-1.9589 -3.85194,-2.03397 -0.9227,-0.01 -4.42132,0.48985 -10.49587,1.49865 -6.07461,1.00894 -12.0692,2.58581 -17.98377,4.7306 -5.91459,2.14493 -9.09322,4.91645 -9.53588,8.31456 0.279,2.93402 1.55698,4.76999 3.83396,5.50793 2.27696,0.73805 3.87894,2.21403 4.80593,4.42795 0.52621,1.96979 0.84976,5.08619 0.97065,9.34921 0.12088,4.26309 0.0498,8.51014 -0.21333,12.74117 -0.26311,4.23108 -0.70755,7.28348 -1.33331,9.15721 -1.07399,2.04299 -2.56197,3.60897 -4.46394,4.69794 -1.90198,1.089 -2.95797,2.83497 -3.16796,5.23794 -0.14044,1.19999 0.25244,2.49597 1.17865,3.88795 0.92621,1.39198 3.2284,2.59196 6.90658,3.59995 3.67816,1.00799 9.57496,1.53598 17.69044,1.58398 2.34571,0.0604 5.44612,-0.0604 9.30121,-0.36266 3.85502,-0.30222 7.35009,-1.14843 10.4852,-2.53864 3.13502,-1.3902 4.79544,-3.68706 4.98127,-6.89057 -0.10494,-2.31552 -0.83915,-3.78039 -2.20264,-4.39462 -1.36359,-0.6142 -2.72712,-1.7484 -4.09061,-3.40262 -1.36359,-1.65418 -2.0978,-5.19902 -2.20264,-10.63453 z m -0.71999,-25.05568 c -0.22204,-3.52786 -1.83002,-5.93983 -4.82394,-7.23591 -2.994,-1.29588 -6.04196,-1.90787 -9.14388,-1.83597 -2.63733,-0.0106 -6.00262,0.44276 -10.09587,1.35998 -4.0933,0.91742 -7.77858,2.36273 -11.05586,4.33594 -3.2773,1.9734 -5.01061,4.5387 -5.19993,7.69591 0.14399,3.49504 1.47598,6.009 3.99595,7.5419 2.51995,1.53305 5.36391,2.28304 8.53189,2.24997 2.92705,0.0339 6.54477,-0.35369 10.85318,-1.16265 4.30836,-0.8088 8.16076,-2.24167 11.55719,-4.29862 3.39636,-2.05677 5.19011,-4.94029 5.38127,-8.65055 z"
         style="font-family:Cooper Std Black;-inkscape-font-specification:Cooper Std Black"
         id="path3242-0" />
      <path
         d="m 344.62451,228.29168 c -0.10667,5.80616 -0.85333,9.80966 -2.23997,12.01051 -1.38666,2.20087 -2.7733,3.76174 -4.15995,4.6826 -1.38665,0.92089 -2.1333,2.36443 -2.23997,4.33062 0.17511,2.49508 1.71287,4.27283 4.61328,5.33326 2.90039,1.06043 6.11279,1.69687 9.6372,1.90931 3.52439,0.21244 6.31013,0.29421 8.35723,0.24533 9.59085,-0.132 15.89676,-1.12799 18.91776,-2.98796 3.02091,-1.85997 4.39489,-3.79195 4.12195,-5.79593 -0.16205,-2.17196 -0.81004,-4.09193 -1.94398,-5.75992 -1.13403,-1.66797 -1.78202,-5.60391 -1.94397,-11.80785 l 0,-11.66385 c -0.19804,-2.96093 0.0179,-6.14688 0.64799,-9.55788 0.62994,-3.41091 2.86191,-5.26488 6.69591,-5.56193 3.9029,0.43205 6.17686,2.80802 6.82191,7.12791 0.64494,4.31998 0.86693,7.99193 0.666,11.01586 l 0,8.20789 c 0.0533,5.4844 -0.46939,9.07546 -1.56798,10.7732 -1.09871,1.69776 -2.22936,2.86753 -3.39196,3.50928 -1.16271,0.64178 -1.81336,2.12088 -1.95197,4.43728 -0.47405,2.09998 0.58194,3.94795 3.16795,5.54393 2.58591,1.59598 9.11382,2.43597 19.58375,2.51997 1.90924,0.0533 4.61853,-0.0693 8.1279,-0.368 3.5092,-0.29866 6.73048,-1.09332 9.66387,-2.38397 2.9332,-1.29064 4.49051,-3.39728 4.67194,-6.31991 -0.0641,-1.59642 -0.51209,-2.80351 -1.34398,-3.62129 -0.83209,-0.81776 -1.66408,-2.32351 -2.49597,-4.51728 -0.83208,-2.19373 -1.28007,-6.15278 -1.34398,-11.87718 l 0,-8.92788 c -0.19809,-2.96093 0.0179,-6.14688 0.64799,-9.55788 0.6299,-3.41091 2.86187,-5.26488 6.69592,-5.56193 3.90284,0.37805 6.17681,2.64602 6.8219,6.80392 0.64489,4.15798 0.86689,7.93793 0.666,11.33985 l 0,12.95983 c -0.2101,3.88497 -1.05009,6.51893 -2.51997,7.9019 -1.47009,1.383 -2.31007,3.26097 -2.51997,5.63393 0.17679,2.46219 1.67899,4.30572 4.50661,5.53059 2.82741,1.22488 5.91892,2.03375 9.27455,2.42664 3.35539,0.39288 5.91358,0.57243 7.67457,0.53866 2.03985,0.0507 4.77581,-0.0987 8.20789,-0.44799 3.43183,-0.34934 6.55178,-1.20266 9.35988,-2.55997 2.80782,-1.35732 4.2958,-3.52262 4.46394,-6.49592 -0.22214,-1.85696 -1.11013,-3.54294 -2.66396,-5.05793 -1.55412,-1.51497 -2.44211,-4.24493 -2.66397,-8.1899 l 0,-30.38361 c -0.0691,-7.07385 -2.05511,-12.43777 -5.95792,-16.09179 -3.90308,-3.65388 -9.30901,-5.48986 -16.21779,-5.50793 -3.66907,0.0661 -6.95103,0.72607 -9.84588,1.97998 -2.89506,1.25405 -5.42103,2.70603 -7.5779,4.35594 -2.08507,1.71904 -3.78305,3.21302 -5.09394,4.48194 -1.31107,1.26905 -2.25306,1.93504 -2.82596,1.99798 -0.88541,-0.15816 -1.81873,-1.2657 -2.79996,-3.32263 -0.98141,-2.0568 -2.74672,-4.11366 -5.29594,-6.17059 -2.54938,-2.05679 -6.61865,-3.16433 -12.20783,-3.32262 -4.22702,0.0661 -7.83297,0.72607 -10.81787,1.97998 -2.98501,1.25405 -5.47498,2.70603 -7.4699,4.35594 -1.99802,1.71904 -3.618,3.21302 -4.85994,4.48194 -1.24203,1.26905 -2.21402,1.93504 -2.91596,1.99798 -1.42503,-0.16794 -2.21102,-1.05593 -2.35797,-2.66397 -0.14704,-1.60792 -0.17704,-2.9279 -0.09,-3.95995 0.063,-1.58091 -0.13504,-2.99089 -0.59399,-4.22995 -0.45904,-1.23891 -1.55702,-1.8929 -3.29396,-1.96197 -0.53514,-0.0159 -3.68887,0.46407 -9.46121,1.43998 -5.77239,0.97606 -11.52876,2.54404 -17.26911,4.70394 -5.74038,2.16003 -8.83012,5.008 -9.26921,8.54389 0.045,1.75503 0.45899,2.88902 1.24198,3.40196 0.78299,0.51304 1.66498,1.10704 2.64597,1.78198 0.76798,0.53704 1.49997,1.73102 2.19597,3.58195 0.69598,1.85102 1.06797,5.02498 1.11598,9.52188 z"
         style="font-family:Cooper Std Black;-inkscape-font-specification:Cooper Std Black"
         id="path3244-9" />
    </g>
    <g
       style="font-size:144px;font-style:normal;font-variant:normal;font-weight:normal;font-stretch:normal;text-align:start;line-height:100%;writing-mode:lr-tb;text-anchor:start;fill:#808000;fill-opacity:1;stroke:none;font-family:Book Antiqua;-inkscape-font-specification:Book Antiqua;filter:url(#filter3426)"
       id="text3233"
       transform="translate(-6.1327042,0.17331039)">
      <path
         d="m 103.60862,195.89209 c 0.075,-7.74583 1.94093,-13.92575 5.59793,-18.53976 3.6569,-4.61386 8.65483,-6.97782 14.9938,-7.09191 6.31897,0.24719 11.08868,1.97695 14.30915,5.18927 3.22032,3.21248 6.14473,6.42488 8.77322,9.63721 2.62833,3.21247 6.21405,4.94222 10.7572,5.18927 3.87585,-0.15294 6.74381,-1.64692 8.60389,-4.48195 1.85987,-2.83489 2.78385,-6.09285 2.77196,-9.77387 -0.0361,-4.13087 -1.29609,-8.7208 -3.77995,-13.76983 -2.48407,-5.04883 -5.97602,-7.8028 -10.47586,-8.26189 -1.34408,0.0901 -2.83206,0.4501 -4.46395,1.07999 -1.63206,0.63009 -3.12004,0.99008 -4.46394,1.07999 -1.81806,-0.1619 -4.59002,-0.80989 -8.3159,-1.94398 -3.72602,-1.13389 -8.72995,-1.78188 -15.0118,-1.94397 -15.83984,0.26709 -29.123656,5.13303 -39.851489,14.59781 -10.727873,9.46495 -16.307794,21.92678 -16.739782,37.38552 0.140438,10.67279 2.819512,19.96688 8.037228,27.8823 5.217694,7.91547 12.131376,14.06294 20.741066,18.44243 8.609627,4.3795 18.072607,6.60169 28.388967,6.66658 10.52679,0.018 20.10866,-2.53796 28.74563,-7.6679 8.63679,-5.12992 14.51071,-12.94181 17.62178,-23.4357 0.41688,-1.81494 0.91488,-3.04493 1.49398,-3.68995 0.57888,-0.64496 1.76086,-1.04695 3.54595,-1.20598 1.78787,-0.30596 3.32385,-1.06195 4.60794,-2.26797 1.28387,-1.20595 1.95586,-2.75393 2.01598,-4.64394 0.14743,-1.46039 -0.32367,-3.09948 -1.41332,-4.91728 -1.08988,-1.8177 -3.68362,-3.40346 -7.78123,-4.75727 -4.09784,-1.35371 -10.58486,-2.06481 -19.46109,-2.1333 -2.67116,-0.0559 -6.27289,0.13605 -10.80519,0.57599 -4.53246,0.44005 -8.65685,1.46403 -12.37318,3.07196 -3.71646,1.60803 -5.68621,4.13599 -5.90925,7.5839 0.1866,4.11643 1.49325,6.36351 3.91995,6.74125 2.42656,0.37781 4.8532,0.68358 7.2799,0.91732 2.42656,0.23381 3.73321,2.19289 3.91995,5.87726 -0.0511,2.63999 -0.88506,4.77596 -2.50196,6.40791 -1.61705,1.632 -3.71103,2.47199 -6.28192,2.51997 -3.22847,0.0516 -6.88353,-1.23551 -10.96519,-3.86128 -4.08178,-2.62572 -7.65151,-6.89944 -10.7092,-12.82117 -3.05778,-5.92166 -4.66487,-13.80066 -4.82127,-23.63703 z"
         style="fill:#808000;font-family:Cooper Std Black;-inkscape-font-specification:Cooper Std Black;"
         id="path3238" />
      <path
         d="m 202.39064,211.2999 c 5.47279,4.09687 10.92694,7.00705 16.36246,8.73055 5.43544,1.72356 9.98293,3.3111 13.64249,4.7626 3.65945,1.45157 5.56165,3.81776 5.70659,7.09858 -0.26405,2.68799 -1.71603,4.54796 -4.35594,5.57993 -2.64002,1.032 -4.88399,1.52399 -6.73191,1.47598 -8.58393,-0.28264 -14.77584,-2.26128 -18.57576,-5.93592 -3.79998,-3.6746 -6.69594,-7.34921 -8.6879,-11.02386 -1.99199,-3.67459 -4.56795,-5.65323 -7.72789,-5.93593 -2.14198,0.081 -3.68996,0.89103 -4.64395,2.42997 -0.95399,1.53902 -1.42198,3.32099 -1.40398,5.34593 -0.006,4.07398 0.83399,8.92191 2.51997,14.54382 1.68597,5.62194 4.25393,9.60588 7.7039,11.95184 4.41293,2.24098 9.91485,3.95095 16.50579,5.12993 6.59088,1.17899 12.4168,1.77298 17.47778,1.78198 16.65272,-0.44099 28.74255,-4.31094 36.26953,-11.60985 7.52681,-7.29889 11.22876,-15.38077 11.10586,-24.24568 -1e-4,-5.3519 -1.11608,-9.94783 -3.34796,-13.78783 -2.23207,-3.8399 -5.58002,-7.21185 -10.04387,-10.11587 -5.70845,-3.51989 -11.33148,-5.99986 -16.86912,-7.4399 -5.53777,-1.43992 -10.14748,-2.89589 -13.82916,-4.36794 -3.68177,-1.47192 -5.59286,-4.01588 -5.73325,-7.63191 0.10495,-2.56789 1.08294,-4.41586 2.93396,-5.54393 1.85092,-1.1279 3.94489,-1.67989 6.28192,-1.65597 4.90921,0.20274 9.02649,1.62139 12.35184,4.25594 3.32522,2.63471 6.35451,5.26934 9.08788,7.9039 2.73322,2.6347 5.66652,4.05335 8.79989,4.25594 2.68488,-0.10193 4.76685,-1.12191 6.24592,-3.05996 1.47888,-1.9379 2.22887,-4.18187 2.24997,-6.73191 -0.35409,-6.23983 -2.38206,-11.54376 -6.08392,-15.9118 -3.70204,-4.36784 -6.95399,-6.64781 -9.75588,-6.83991 -1.49105,0.0721 -2.79303,0.3601 -3.90595,0.86399 -1.11305,0.50409 -2.16304,0.79209 -3.14996,0.86399 -1.27505,-0.1739 -4.01701,-0.86989 -8.2259,-2.08797 -4.209,-1.21789 -8.71494,-1.91388 -13.51782,-2.08797 -13.98585,0.46209 -24.53371,4.18204 -31.64359,11.15985 -7.10992,6.97799 -10.67387,14.44189 -10.69186,22.39171 0.075,5.202 1.36497,9.95394 3.86995,14.25582 2.50496,4.30199 5.77491,8.04594 9.80987,11.23186 z"
         style="fill:#808000;font-family:Cooper Std Black;-inkscape-font-specification:Cooper Std Black;"
         id="path3240" />
      <path
         d="m 324.46408,188.40419 c 0.0839,-1.58691 -0.12005,-3.02089 -0.612,-4.30195 -0.49203,-1.28091 -1.77601,-1.9589 -3.85194,-2.03397 -0.9227,-0.01 -4.42132,0.48985 -10.49587,1.49865 -6.07461,1.00894 -12.0692,2.58581 -17.98377,4.7306 -5.91459,2.14493 -9.09322,4.91645 -9.53588,8.31456 0.279,2.93402 1.55698,4.76999 3.83396,5.50793 2.27696,0.73805 3.87894,2.21403 4.80593,4.42795 0.52621,1.96979 0.84976,5.08619 0.97065,9.34921 0.12088,4.26309 0.0498,8.51014 -0.21333,12.74117 -0.26311,4.23108 -0.70755,7.28348 -1.33331,9.15721 -1.07399,2.04299 -2.56197,3.60897 -4.46394,4.69794 -1.90198,1.089 -2.95797,2.83497 -3.16796,5.23794 -0.14044,1.19999 0.25244,2.49597 1.17865,3.88795 0.92621,1.39198 3.2284,2.59196 6.90658,3.59995 3.67816,1.00799 9.57496,1.53598 17.69044,1.58398 2.34571,0.0604 5.44612,-0.0604 9.30121,-0.36266 3.85502,-0.30222 7.35009,-1.14843 10.4852,-2.53864 3.13502,-1.3902 4.79544,-3.68706 4.98127,-6.89057 -0.10494,-2.31552 -0.83915,-3.78039 -2.20264,-4.39462 -1.36359,-0.6142 -2.72712,-1.7484 -4.09061,-3.40262 -1.36359,-1.65418 -2.0978,-5.19902 -2.20264,-10.63453 z m -0.71999,-25.05568 c -0.22204,-3.52786 -1.83002,-5.93983 -4.82394,-7.23591 -2.994,-1.29588 -6.04196,-1.90787 -9.14388,-1.83597 -2.63733,-0.0106 -6.00262,0.44276 -10.09587,1.35998 -4.0933,0.91742 -7.77858,2.36273 -11.05586,4.33594 -3.2773,1.9734 -5.01061,4.5387 -5.19993,7.69591 0.14399,3.49504 1.47598,6.009 3.99595,7.5419 2.51995,1.53305 5.36391,2.28304 8.53189,2.24997 2.92705,0.0339 6.54477,-0.35369 10.85318,-1.16265 4.30836,-0.8088 8.16076,-2.24167 11.55719,-4.29862 3.39636,-2.05677 5.19011,-4.94029 5.38127,-8.65055 z"
         style="fill:#808000;font-family:Cooper Std Black;-inkscape-font-specification:Cooper Std Black;"
         id="path3242" />
      <path
         d="m 344.62451,228.29168 c -0.10667,5.80616 -0.85333,9.80966 -2.23997,12.01051 -1.38666,2.20087 -2.7733,3.76174 -4.15995,4.6826 -1.38665,0.92089 -2.1333,2.36443 -2.23997,4.33062 0.17511,2.49508 1.71287,4.27283 4.61328,5.33326 2.90039,1.06043 6.11279,1.69687 9.6372,1.90931 3.52439,0.21244 6.31013,0.29421 8.35723,0.24533 9.59085,-0.132 15.89676,-1.12799 18.91776,-2.98796 3.02091,-1.85997 4.39489,-3.79195 4.12195,-5.79593 -0.16205,-2.17196 -0.81004,-4.09193 -1.94398,-5.75992 -1.13403,-1.66797 -1.78202,-5.60391 -1.94397,-11.80785 l 0,-11.66385 c -0.19804,-2.96093 0.0179,-6.14688 0.64799,-9.55788 0.62994,-3.41091 2.86191,-5.26488 6.69591,-5.56193 3.9029,0.43205 6.17686,2.80802 6.82191,7.12791 0.64494,4.31998 0.86693,7.99193 0.666,11.01586 l 0,8.20789 c 0.0533,5.4844 -0.46939,9.07546 -1.56798,10.7732 -1.09871,1.69776 -2.22936,2.86753 -3.39196,3.50928 -1.16271,0.64178 -1.81336,2.12088 -1.95197,4.43728 -0.47405,2.09998 0.58194,3.94795 3.16795,5.54393 2.58591,1.59598 9.11382,2.43597 19.58375,2.51997 1.90924,0.0533 4.61853,-0.0693 8.1279,-0.368 3.5092,-0.29866 6.73048,-1.09332 9.66387,-2.38397 2.9332,-1.29064 4.49051,-3.39728 4.67194,-6.31991 -0.0641,-1.59642 -0.51209,-2.80351 -1.34398,-3.62129 -0.83209,-0.81776 -1.66408,-2.32351 -2.49597,-4.51728 -0.83208,-2.19373 -1.28007,-6.15278 -1.34398,-11.87718 l 0,-8.92788 c -0.19809,-2.96093 0.0179,-6.14688 0.64799,-9.55788 0.6299,-3.41091 2.86187,-5.26488 6.69592,-5.56193 3.90284,0.37805 6.17681,2.64602 6.8219,6.80392 0.64489,4.15798 0.86689,7.93793 0.666,11.33985 l 0,12.95983 c -0.2101,3.88497 -1.05009,6.51893 -2.51997,7.9019 -1.47009,1.383 -2.31007,3.26097 -2.51997,5.63393 0.17679,2.46219 1.67899,4.30572 4.50661,5.53059 2.82741,1.22488 5.91892,2.03375 9.27455,2.42664 3.35539,0.39288 5.91358,0.57243 7.67457,0.53866 2.03985,0.0507 4.77581,-0.0987 8.20789,-0.44799 3.43183,-0.34934 6.55178,-1.20266 9.35988,-2.55997 2.80782,-1.35732 4.2958,-3.52262 4.46394,-6.49592 -0.22214,-1.85696 -1.11013,-3.54294 -2.66396,-5.05793 -1.55412,-1.51497 -2.44211,-4.24493 -2.66397,-8.1899 l 0,-30.38361 c -0.0691,-7.07385 -2.05511,-12.43777 -5.95792,-16.09179 -3.90308,-3.65388 -9.30901,-5.48986 -16.21779,-5.50793 -3.66907,0.0661 -6.95103,0.72607 -9.84588,1.97998 -2.89506,1.25405 -5.42103,2.70603 -7.5779,4.35594 -2.08507,1.71904 -3.78305,3.21302 -5.09394,4.48194 -1.31107,1.26905 -2.25306,1.93504 -2.82596,1.99798 -0.88541,-0.15816 -1.81873,-1.2657 -2.79996,-3.32263 -0.98141,-2.0568 -2.74672,-4.11366 -5.29594,-6.17059 -2.54938,-2.05679 -6.61865,-3.16433 -12.20783,-3.32262 -4.22702,0.0661 -7.83297,0.72607 -10.81787,1.97998 -2.98501,1.25405 -5.47498,2.70603 -7.4699,4.35594 -1.99802,1.71904 -3.618,3.21302 -4.85994,4.48194 -1.24203,1.26905 -2.21402,1.93504 -2.91596,1.99798 -1.42503,-0.16794 -2.21102,-1.05593 -2.35797,-2.66397 -0.14704,-1.60792 -0.17704,-2.9279 -0.09,-3.95995 0.063,-1.58091 -0.13504,-2.99089 -0.59399,-4.22995 -0.45904,-1.23891 -1.55702,-1.8929 -3.29396,-1.96197 -0.53514,-0.0159 -3.68887,0.46407 -9.46121,1.43998 -5.77239,0.97606 -11.52876,2.54404 -17.26911,4.70394 -5.74038,2.16003 -8.83012,5.008 -9.26921,8.54389 0.045,1.75503 0.45899,2.88902 1.24198,3.40196 0.78299,0.51304 1.66498,1.10704 2.64597,1.78198 0.76798,0.53704 1.49997,1.73102 2.19597,3.58195 0.69598,1.85102 1.06797,5.02498 1.11598,9.52188 z"
         style="fill:#808000;font-family:Cooper Std Black;-inkscape-font-specification:Cooper Std Black;"
         id="path3244" />
    </g>
    <rect
       style="opacity:0.97596154;fill:#ffffff;fill-opacity:1;stroke:none"
       id="rect3675"
       width="556.59406"
       height="51.51778"
       x="8.0812206"
       y="277.61578" />
  </g>
</svg>
