<?xml version="1.0" encoding="UTF-8" standalone="no"?>
<!-- Created with Inkscape (http://www.inkscape.org/) -->

<svg
   xmlns:dc="http://purl.org/dc/elements/1.1/"
   xmlns:cc="http://creativecommons.org/ns#"
   xmlns:rdf="http://www.w3.org/1999/02/22-rdf-syntax-ns#"
   xmlns:svg="http://www.w3.org/2000/svg"
   xmlns="http://www.w3.org/2000/svg"
   xmlns:xlink="http://www.w3.org/1999/xlink"
   xmlns:sodipodi="http://sodipodi.sourceforge.net/DTD/sodipodi-0.dtd"
   xmlns:inkscape="http://www.inkscape.org/namespaces/inkscape"
   width="744.09448819"
   height="1052.3622047"
   id="svg2"
   version="1.1"
   inkscape:version="0.47 r22583"
   sodipodi:docname="logo3.svg"
   inkscape:export-filename="C:\gsim\gsim-cmatrix\images\startlogo.png"
   inkscape:export-xdpi="100"
   inkscape:export-ydpi="100">
  <defs
     id="defs4">
    <linearGradient
       id="linearGradient7898">
      <stop
         style="stop-color:#bdc200;stop-opacity:1;"
         offset="0"
         id="stop7900" />
      <stop
         style="stop-color:#c2bc00;stop-opacity:0.59292036;"
         offset="1"
         id="stop7902" />
    </linearGradient>
    <inkscape:perspective
       sodipodi:type="inkscape:persp3d"
       inkscape:vp_x="0 : 526.18109 : 1"
       inkscape:vp_y="0 : 1000 : 0"
       inkscape:vp_z="744.09448 : 526.18109 : 1"
       inkscape:persp3d-origin="372.04724 : 350.78739 : 1"
       id="perspective10" />
    <inkscape:perspective
       id="perspective3609"
       inkscape:persp3d-origin="0.5 : 0.33333333 : 1"
       inkscape:vp_z="1 : 0.5 : 1"
       inkscape:vp_y="0 : 1000 : 0"
       inkscape:vp_x="0 : 0.5 : 1"
       sodipodi:type="inkscape:persp3d" />
    <filter
       inkscape:collect="always"
       id="filter6412">
      <feGaussianBlur
         inkscape:collect="always"
         stdDeviation="3.9141973"
         id="feGaussianBlur6414" />
    </filter>
    <inkscape:perspective
       id="perspective6424"
       inkscape:persp3d-origin="0.5 : 0.33333333 : 1"
       inkscape:vp_z="1 : 0.5 : 1"
       inkscape:vp_y="0 : 1000 : 0"
       inkscape:vp_x="0 : 0.5 : 1"
       sodipodi:type="inkscape:persp3d" />
    <linearGradient
       inkscape:collect="always"
       xlink:href="#linearGradient7898"
       id="linearGradient7906"
       x1="173.00223"
       y1="489.6886"
       x2="550.25226"
       y2="489.6886"
       gradientUnits="userSpaceOnUse"
       spreadMethod="pad" />
  </defs>
  <sodipodi:namedview
     id="base"
     pagecolor="#ffffff"
     bordercolor="#666666"
     borderopacity="1.0"
     inkscape:pageopacity="0.0"
     inkscape:pageshadow="2"
     inkscape:zoom="0.7"
     inkscape:cx="498.6157"
     inkscape:cy="520"
     inkscape:document-units="px"
     inkscape:current-layer="layer1"
     showgrid="false"
     inkscape:snap-bbox="true"
     inkscape:window-width="1007"
     inkscape:window-height="811"
     inkscape:window-x="198"
     inkscape:window-y="261"
     inkscape:window-maximized="0" />
  <metadata
     id="metadata7">
    <rdf:RDF>
      <cc:Work
         rdf:about="">
        <dc:format>image/svg+xml</dc:format>
        <dc:type
           rdf:resource="http://purl.org/dc/dcmitype/StillImage" />
        <dc:title></dc:title>
      </cc:Work>
    </rdf:RDF>
  </metadata>
  <g
     inkscape:label="Layer 1"
     inkscape:groupmode="layer"
     id="layer1">
    <g
       transform="matrix(1.026087,0,-1.0039629,0.73882215,527.26601,138.42654)"
       style="font-size:20px;font-style:normal;font-variant:normal;font-weight:normal;font-stretch:normal;text-align:start;line-height:100%;writing-mode:lr-tb;text-anchor:start;fill:#999999;fill-opacity:1;stroke:none;font-family:Arial;-inkscape-font-specification:Arial;opacity:0.97596154000000002;filter:url(#filter6412)"
       id="text2816-1">
      <path
         d="m 237.38504,505.33313 0,-5.69531 c 8.53117,0.18754 16.14835,0.28129 22.85156,0.28125 6.1874,4e-5 12.86708,-0.0937 20.03907,-0.28125 l 0,4.5 c -2.06262,0.65628 -4.03136,1.42972 -5.90625,2.32031 -0.56261,4.7344 -0.84386,8.76565 -0.84375,12.09375 -1.1e-4,2.39064 0.28114,7.12501 0.84375,14.20312 -9.28135,3.37501 -17.05088,5.66016 -23.3086,6.85547 -6.25789,1.19531 -12.73835,1.79297 -19.4414,1.79297 -18.0938,0 -32.26176,-4.69921 -42.50391,-14.09765 -10.2422,-9.39842 -15.36329,-21.57419 -15.36328,-36.52735 -1e-5,-15.37493 5.22655,-27.67961 15.67969,-36.91406 10.45309,-9.23428 25.45307,-13.85146 45,-13.85156 6.89055,1e-4 13.49991,0.53916 19.82812,1.61718 6.32803,1.07823 12.35146,2.71885 18.07031,4.92188 l 0.63282,1.05469 c -1.35948,5.95321 -2.3673,13.35945 -3.02344,22.21875 l -5.90625,0 c -0.047,-4.45305 -0.35166,-8.39055 -0.91406,-11.8125 -3.0001,-3.46867 -6.85556,-6.07023 -11.56641,-7.80469 -4.71102,-1.73428 -10.27742,-2.60147 -16.69922,-2.60156 -12.04693,9e-5 -21.64458,3.65634 -28.79297,10.96875 -7.14847,7.31257 -10.72268,17.32037 -10.72265,30.02343 -3e-5,13.54692 3.76168,24.45706 11.28515,32.73047 7.52339,8.27345 16.79291,12.41017 27.8086,12.41016 5.8593,10e-6 12.09367,-1.42968 18.70312,-4.28906 0.37491,-3.60936 0.56241,-7.03124 0.5625,-10.26563 -9e-5,-7.21872 -0.42196,-11.20309 -1.26562,-11.95312 -0.84384,-0.74997 -5.85946,-1.38278 -15.04688,-1.89844 z"
         style="font-size:144px;font-weight:bold;fill:#999999;stroke:none;font-family:Book Antiqua;-inkscape-font-specification:Book Antiqua Bold"
         id="path3593-7" />
      <path
         d="m 297.29129,510.255 6.1875,0 c 0.0469,6.93753 0.26952,11.00393 0.66797,12.19922 0.39842,1.19533 1.74607,2.76564 4.04297,4.71094 2.29685,1.94532 5.27341,3.52735 8.92969,4.74609 3.65621,1.21876 7.40621,1.82814 11.25,1.82813 6.60932,10e-6 11.89447,-1.75781 15.85546,-5.27344 3.96088,-3.51561 5.94135,-7.89842 5.94141,-13.14844 -6e-5,-4.82809 -1.31256,-8.53121 -3.9375,-11.10937 -2.67193,-2.57809 -7.73443,-4.40621 -15.1875,-5.48438 -11.06253,-1.5937 -18.52737,-3.32808 -22.39453,-5.20312 -3.86721,-1.87495 -6.91408,-4.68745 -9.14063,-8.4375 -2.22657,-3.74994 -3.33985,-8.24994 -3.33984,-13.5 -1e-5,-8.81242 3.10546,-16.27726 9.31641,-22.39453 6.21091,-6.11709 16.13668,-9.17568 29.77734,-9.17578 5.3437,1e-4 10.08979,0.39853 14.23828,1.19531 4.14837,0.79697 8.30852,2.10947 12.48047,3.9375 l 0.70313,1.6875 c -0.75008,2.95321 -1.27742,5.62509 -1.58204,8.01562 -0.30476,2.39071 -0.57429,6.51571 -0.80859,12.375 l -6.11719,0 c -0.23444,-7.21867 -0.586,-11.27335 -1.05468,-12.16406 -0.89069,-1.54679 -3.15241,-3.17569 -6.78516,-4.88672 -3.63287,-1.71084 -7.79302,-2.56631 -12.48047,-2.5664 -6.42191,9e-5 -11.40238,1.55868 -14.94141,4.67578 -3.53909,3.11727 -5.30862,7.1368 -5.30859,12.05859 -3e-5,3.00007 0.72654,5.61335 2.17969,7.83985 1.45309,2.22662 3.48043,3.86725 6.08203,4.92187 2.60152,1.05475 8.19136,2.26178 16.76953,3.62109 7.78119,1.17194 13.05462,2.32037 15.82031,3.44532 4.54681,1.82818 7.99212,4.61724 10.33594,8.36718 2.34367,3.75005 3.51554,8.48442 3.51563,14.20313 -9e-5,9.93752 -3.79696,18.19923 -11.39063,24.78516 -7.59381,6.58594 -17.97661,9.8789 -31.14844,9.8789 -5.8594,0 -11.17971,-0.5625 -15.96093,-1.6875 -4.78127,-1.125 -9.72658,-2.97656 -14.83594,-5.55469 0.84374,-3.28124 1.40624,-6.2578 1.6875,-8.92968 0.37499,-3.70311 0.58593,-8.69529 0.63281,-14.97657 z"
         style="font-size:144px;font-weight:bold;fill:#999999;stroke:none;font-family:Book Antiqua;-inkscape-font-specification:Book Antiqua Bold"
         id="path3595-4" />
      <path
         d="m 399.31473,437.97375 c 2.99997,1.1e-4 5.56637,1.06651 7.69922,3.19922 2.13278,2.13291 3.19918,4.72275 3.19922,7.76953 -4e-5,3.00009 -1.06644,5.5665 -3.19922,7.69922 -2.13285,2.1329 -4.72269,3.1993 -7.76953,3.19922 -3.00003,8e-5 -5.56643,-1.06632 -7.69922,-3.19922 -2.13283,-2.13272 -3.19924,-4.69913 -3.19922,-7.69922 -2e-5,-3.04678 1.06639,-5.63662 3.19922,-7.76953 2.13279,-2.13271 4.72263,-3.19911 7.76953,-3.19922 z m -19.61719,101.95313 0,-5.83594 c 5.29687,-0.18749 8.35546,-0.51562 9.17578,-0.98437 0.8203,-0.46875 1.34764,-1.78124 1.58203,-3.9375 0.37499,-2.95311 0.56249,-9.46873 0.5625,-19.54688 -1e-5,-4.35934 -0.0703,-8.39058 -0.21093,-12.09375 l -0.21094,-8.22656 c -2e-5,-2.7187 -0.29299,-4.39448 -0.87891,-5.02734 -0.58595,-0.63276 -2.16798,-0.99604 -4.74609,-1.08985 l -5.27344,-0.21094 0,-5.41406 c 11.29686,-0.84368 20.60154,-2.83587 27.91406,-5.97656 l 1.75782,1.40625 c -0.65629,8.95318 -0.98441,21.98442 -0.98438,39.09375 -3e-5,9.89064 0.16403,15.8672 0.49219,17.92969 0.23434,1.45313 0.66793,2.39063 1.30078,2.8125 0.63278,0.42188 3.7148,0.84375 9.24609,1.26562 l 0,5.83594 c -8.48441,-0.28125 -15.0469,-0.42188 -19.6875,-0.42188 -2.48439,0 -9.16408,0.14063 -20.03906,0.42188 z"
         style="font-size:144px;font-weight:bold;fill:#999999;stroke:none;font-family:Book Antiqua;-inkscape-font-specification:Book Antiqua Bold"
         id="path3597-0" />
      <path
         d="m 427.65067,539.92688 0,-5.83594 c 4.87499,-0.18749 7.65233,-0.5039 8.33203,-0.94922 0.67967,-0.4453 1.11326,-1.25389 1.30078,-2.42578 0.37498,-2.29686 0.56248,-7.73436 0.5625,-16.3125 -2e-5,-18.04683 -0.23439,-27.82026 -0.70313,-29.32031 -0.37501,-1.26557 -2.01563,-1.92182 -4.92187,-1.96875 l -4.57031,-0.14063 0,-5.41406 c 5.76561,-0.60931 10.68748,-1.37103 14.76562,-2.28515 4.0781,-0.914 7.75779,-2.02728 11.03906,-3.33985 0.65622,-0.2343 1.14841,-0.35149 1.47657,-0.35156 0.65621,7e-5 0.98434,0.586 0.98437,1.75781 -3e-5,0.89069 -0.0703,2.086 -0.21094,3.58594 -0.0938,0.65631 -0.14065,1.82819 -0.14062,3.51562 l 0,2.53125 11.53125,-8.64843 c 2.43745,-1.82806 6.14057,-2.74212 11.10937,-2.74219 5.01557,7e-5 8.99994,0.97272 11.95313,2.91797 2.95305,1.94537 5.20305,5.05084 6.75,9.3164 l 11.95312,-9.49218 c 2.29679,-1.82806 5.50772,-2.74212 9.63282,-2.74219 7.35927,7e-5 12.77332,1.80475 16.24218,5.41406 3.46864,3.60944 5.20301,9.46881 5.20313,17.57813 l -0.14063,5.83593 c -0.18761,6.46879 -0.28136,12.23441 -0.28125,17.29688 -1.1e-4,6.70314 0.21082,11.03907 0.63282,13.00781 0.28113,1.07814 0.7616,1.83985 1.4414,2.28516 0.67957,0.44532 3.31629,0.8086 7.91016,1.08984 l 0,5.83594 c -5.8595,-0.28125 -10.96887,-0.42188 -15.32813,-0.42188 -4.21885,0 -8.60166,0.14063 -13.14843,0.42188 l -0.84375,-1.33594 c 1.26552,-10.07811 1.89833,-19.92185 1.89843,-29.53125 -10e-5,-11.39058 -0.879,-18.50385 -2.63672,-21.33984 -1.7579,-2.83588 -4.86337,-4.25385 -9.3164,-4.25391 -2.90634,6e-5 -5.46102,0.72662 -7.66406,2.17969 -2.20321,1.45318 -3.65633,3.11724 -4.35938,4.99219 -0.46882,1.31254 -0.7032,5.4141 -0.70312,12.30468 -8e-5,12.37503 0.16398,20.92971 0.49218,25.66407 0.14055,2.10938 0.57415,3.45704 1.30078,4.04297 0.72649,0.58594 3.71477,1.06641 8.96485,1.4414 l 0,5.83594 c -6.14071,-0.28125 -12.16414,-0.42188 -18.07031,-0.42188 -7.35944,0 -13.96881,0.14063 -19.82813,0.42188 l 0,-5.83594 c 4.64057,10e-6 7.35932,-0.66796 8.15625,-2.0039 0.79682,-1.33593 1.19526,-7.20702 1.19531,-17.61329 -5e-5,-11.85933 -0.23443,-19.24214 -0.70312,-22.14843 -0.46881,-2.9062 -1.60552,-5.10933 -3.41016,-6.60938 -1.80474,-1.49994 -4.30083,-2.24994 -7.48828,-2.25 -2.34379,6e-5 -4.4766,0.53912 -6.39844,1.61719 -1.92191,1.07818 -3.53909,2.60161 -4.85156,4.57031 -0.75003,1.07818 -1.12503,2.74224 -1.125,4.99219 l 0.0703,2.67187 c 0.1406,1.31255 0.21091,4.99223 0.21094,11.03907 l -0.0703,8.29687 c -3e-5,7.96877 0.14059,12.6797 0.42187,14.13281 0.14059,0.93751 0.52731,1.6172 1.16016,2.03907 0.63278,0.42188 3.19918,0.84375 7.69922,1.26562 l 0,5.83594 c -5.62504,-0.28125 -11.78909,-0.42188 -18.49219,-0.42188 -2.34377,0 -8.67189,0.14063 -18.98437,0.42188 z"
         style="font-size:144px;font-weight:bold;fill:#999999;stroke:none;font-family:Book Antiqua;-inkscape-font-specification:Book Antiqua Bold"
         id="path3599-9" />
    </g>
    <g
       transform="translate(3.2299135,-3.32641)"
       style="font-size:20px;font-style:normal;font-variant:normal;font-weight:normal;font-stretch:normal;text-align:start;line-height:100%;writing-mode:lr-tb;text-anchor:start;fill:#000000;fill-opacity:1;stroke:#000000;stroke-width:1.5;stroke-miterlimit:4;stroke-opacity:1;stroke-dasharray:none;font-family:Arial;-inkscape-font-specification:Arial"
       id="text2816-4">
      <path
         d="m 237.38504,505.33313 0,-5.69531 c 8.53117,0.18754 16.14835,0.28129 22.85156,0.28125 6.1874,4e-5 12.86708,-0.0937 20.03907,-0.28125 l 0,4.5 c -2.06262,0.65628 -4.03136,1.42972 -5.90625,2.32031 -0.56261,4.7344 -0.84386,8.76565 -0.84375,12.09375 -1.1e-4,2.39064 0.28114,7.12501 0.84375,14.20312 -9.28135,3.37501 -17.05088,5.66016 -23.3086,6.85547 -6.25789,1.19531 -12.73835,1.79297 -19.4414,1.79297 -18.0938,0 -32.26176,-4.69921 -42.50391,-14.09765 -10.2422,-9.39842 -15.36329,-21.57419 -15.36328,-36.52735 -1e-5,-15.37493 5.22655,-27.67961 15.67969,-36.91406 10.45309,-9.23428 25.45307,-13.85146 45,-13.85156 6.89055,1e-4 13.49991,0.53916 19.82812,1.61718 6.32803,1.07823 12.35146,2.71885 18.07031,4.92188 l 0.63282,1.05469 c -1.35948,5.95321 -2.3673,13.35945 -3.02344,22.21875 l -5.90625,0 c -0.047,-4.45305 -0.35166,-8.39055 -0.91406,-11.8125 -3.0001,-3.46867 -6.85556,-6.07023 -11.56641,-7.80469 -4.71102,-1.73428 -10.27742,-2.60147 -16.69922,-2.60156 -12.04693,9e-5 -21.64458,3.65634 -28.79297,10.96875 -7.14847,7.31257 -10.72268,17.32037 -10.72265,30.02343 -3e-5,13.54692 3.76168,24.45706 11.28515,32.73047 7.52339,8.27345 16.79291,12.41017 27.8086,12.41016 5.8593,10e-6 12.09367,-1.42968 18.70312,-4.28906 0.37491,-3.60936 0.56241,-7.03124 0.5625,-10.26563 -9e-5,-7.21872 -0.42196,-11.20309 -1.26562,-11.95312 -0.84384,-0.74997 -5.85946,-1.38278 -15.04688,-1.89844 z"
         style="font-size:144px;font-weight:bold;fill:#000000;stroke:#000000;stroke-width:1.5;stroke-miterlimit:4;stroke-opacity:1;stroke-dasharray:none;font-family:Book Antiqua;-inkscape-font-specification:Book Antiqua Bold"
         id="path3593-8" />
      <path
         d="m 297.29129,510.255 6.1875,0 c 0.0469,6.93753 0.26952,11.00393 0.66797,12.19922 0.39842,1.19533 1.74607,2.76564 4.04297,4.71094 2.29685,1.94532 5.27341,3.52735 8.92969,4.74609 3.65621,1.21876 7.40621,1.82814 11.25,1.82813 6.60932,10e-6 11.89447,-1.75781 15.85546,-5.27344 3.96088,-3.51561 5.94135,-7.89842 5.94141,-13.14844 -6e-5,-4.82809 -1.31256,-8.53121 -3.9375,-11.10937 -2.67193,-2.57809 -7.73443,-4.40621 -15.1875,-5.48438 -11.06253,-1.5937 -18.52737,-3.32808 -22.39453,-5.20312 -3.86721,-1.87495 -6.91408,-4.68745 -9.14063,-8.4375 -2.22657,-3.74994 -3.33985,-8.24994 -3.33984,-13.5 -1e-5,-8.81242 3.10546,-16.27726 9.31641,-22.39453 6.21091,-6.11709 16.13668,-9.17568 29.77734,-9.17578 5.3437,1e-4 10.08979,0.39853 14.23828,1.19531 4.14837,0.79697 8.30852,2.10947 12.48047,3.9375 l 0.70313,1.6875 c -0.75008,2.95321 -1.27742,5.62509 -1.58204,8.01562 -0.30476,2.39071 -0.57429,6.51571 -0.80859,12.375 l -6.11719,0 c -0.23444,-7.21867 -0.586,-11.27335 -1.05468,-12.16406 -0.89069,-1.54679 -3.15241,-3.17569 -6.78516,-4.88672 -3.63287,-1.71084 -7.79302,-2.56631 -12.48047,-2.5664 -6.42191,9e-5 -11.40238,1.55868 -14.94141,4.67578 -3.53909,3.11727 -5.30862,7.1368 -5.30859,12.05859 -3e-5,3.00007 0.72654,5.61335 2.17969,7.83985 1.45309,2.22662 3.48043,3.86725 6.08203,4.92187 2.60152,1.05475 8.19136,2.26178 16.76953,3.62109 7.78119,1.17194 13.05462,2.32037 15.82031,3.44532 4.54681,1.82818 7.99212,4.61724 10.33594,8.36718 2.34367,3.75005 3.51554,8.48442 3.51563,14.20313 -9e-5,9.93752 -3.79696,18.19923 -11.39063,24.78516 -7.59381,6.58594 -17.97661,9.8789 -31.14844,9.8789 -5.8594,0 -11.17971,-0.5625 -15.96093,-1.6875 -4.78127,-1.125 -9.72658,-2.97656 -14.83594,-5.55469 0.84374,-3.28124 1.40624,-6.2578 1.6875,-8.92968 0.37499,-3.70311 0.58593,-8.69529 0.63281,-14.97657 z"
         style="font-size:144px;font-weight:bold;fill:#000000;stroke:#000000;stroke-width:1.5;stroke-miterlimit:4;stroke-opacity:1;stroke-dasharray:none;font-family:Book Antiqua;-inkscape-font-specification:Book Antiqua Bold"
         id="path3595-8" />
      <path
         d="m 399.31473,437.97375 c 2.99997,1.1e-4 5.56637,1.06651 7.69922,3.19922 2.13278,2.13291 3.19918,4.72275 3.19922,7.76953 -4e-5,3.00009 -1.06644,5.5665 -3.19922,7.69922 -2.13285,2.1329 -4.72269,3.1993 -7.76953,3.19922 -3.00003,8e-5 -5.56643,-1.06632 -7.69922,-3.19922 -2.13283,-2.13272 -3.19924,-4.69913 -3.19922,-7.69922 -2e-5,-3.04678 1.06639,-5.63662 3.19922,-7.76953 2.13279,-2.13271 4.72263,-3.19911 7.76953,-3.19922 z m -19.61719,101.95313 0,-5.83594 c 5.29687,-0.18749 8.35546,-0.51562 9.17578,-0.98437 0.8203,-0.46875 1.34764,-1.78124 1.58203,-3.9375 0.37499,-2.95311 0.56249,-9.46873 0.5625,-19.54688 -1e-5,-4.35934 -0.0703,-8.39058 -0.21093,-12.09375 l -0.21094,-8.22656 c -2e-5,-2.7187 -0.29299,-4.39448 -0.87891,-5.02734 -0.58595,-0.63276 -2.16798,-0.99604 -4.74609,-1.08985 l -5.27344,-0.21094 0,-5.41406 c 11.29686,-0.84368 20.60154,-2.83587 27.91406,-5.97656 l 1.75782,1.40625 c -0.65629,8.95318 -0.98441,21.98442 -0.98438,39.09375 -3e-5,9.89064 0.16403,15.8672 0.49219,17.92969 0.23434,1.45313 0.66793,2.39063 1.30078,2.8125 0.63278,0.42188 3.7148,0.84375 9.24609,1.26562 l 0,5.83594 c -8.48441,-0.28125 -15.0469,-0.42188 -19.6875,-0.42188 -2.48439,0 -9.16408,0.14063 -20.03906,0.42188 z"
         style="font-size:144px;font-weight:bold;fill:#000000;stroke:#000000;stroke-width:1.5;stroke-miterlimit:4;stroke-opacity:1;stroke-dasharray:none;font-family:Book Antiqua;-inkscape-font-specification:Book Antiqua Bold"
         id="path3597-2" />
      <path
         d="m 427.65067,539.92688 0,-5.83594 c 4.87499,-0.18749 7.65233,-0.5039 8.33203,-0.94922 0.67967,-0.4453 1.11326,-1.25389 1.30078,-2.42578 0.37498,-2.29686 0.56248,-7.73436 0.5625,-16.3125 -2e-5,-18.04683 -0.23439,-27.82026 -0.70313,-29.32031 -0.37501,-1.26557 -2.01563,-1.92182 -4.92187,-1.96875 l -4.57031,-0.14063 0,-5.41406 c 5.76561,-0.60931 10.68748,-1.37103 14.76562,-2.28515 4.0781,-0.914 7.75779,-2.02728 11.03906,-3.33985 0.65622,-0.2343 1.14841,-0.35149 1.47657,-0.35156 0.65621,7e-5 0.98434,0.586 0.98437,1.75781 -3e-5,0.89069 -0.0703,2.086 -0.21094,3.58594 -0.0938,0.65631 -0.14065,1.82819 -0.14062,3.51562 l 0,2.53125 11.53125,-8.64843 c 2.43745,-1.82806 6.14057,-2.74212 11.10937,-2.74219 5.01557,7e-5 8.99994,0.97272 11.95313,2.91797 2.95305,1.94537 5.20305,5.05084 6.75,9.3164 l 11.95312,-9.49218 c 2.29679,-1.82806 5.50772,-2.74212 9.63282,-2.74219 7.35927,7e-5 12.77332,1.80475 16.24218,5.41406 3.46864,3.60944 5.20301,9.46881 5.20313,17.57813 l -0.14063,5.83593 c -0.18761,6.46879 -0.28136,12.23441 -0.28125,17.29688 -1.1e-4,6.70314 0.21082,11.03907 0.63282,13.00781 0.28113,1.07814 0.7616,1.83985 1.4414,2.28516 0.67957,0.44532 3.31629,0.8086 7.91016,1.08984 l 0,5.83594 c -5.8595,-0.28125 -10.96887,-0.42188 -15.32813,-0.42188 -4.21885,0 -8.60166,0.14063 -13.14843,0.42188 l -0.84375,-1.33594 c 1.26552,-10.07811 1.89833,-19.92185 1.89843,-29.53125 -10e-5,-11.39058 -0.879,-18.50385 -2.63672,-21.33984 -1.7579,-2.83588 -4.86337,-4.25385 -9.3164,-4.25391 -2.90634,6e-5 -5.46102,0.72662 -7.66406,2.17969 -2.20321,1.45318 -3.65633,3.11724 -4.35938,4.99219 -0.46882,1.31254 -0.7032,5.4141 -0.70312,12.30468 -8e-5,12.37503 0.16398,20.92971 0.49218,25.66407 0.14055,2.10938 0.57415,3.45704 1.30078,4.04297 0.72649,0.58594 3.71477,1.06641 8.96485,1.4414 l 0,5.83594 c -6.14071,-0.28125 -12.16414,-0.42188 -18.07031,-0.42188 -7.35944,0 -13.96881,0.14063 -19.82813,0.42188 l 0,-5.83594 c 4.64057,10e-6 7.35932,-0.66796 8.15625,-2.0039 0.79682,-1.33593 1.19526,-7.20702 1.19531,-17.61329 -5e-5,-11.85933 -0.23443,-19.24214 -0.70312,-22.14843 -0.46881,-2.9062 -1.60552,-5.10933 -3.41016,-6.60938 -1.80474,-1.49994 -4.30083,-2.24994 -7.48828,-2.25 -2.34379,6e-5 -4.4766,0.53912 -6.39844,1.61719 -1.92191,1.07818 -3.53909,2.60161 -4.85156,4.57031 -0.75003,1.07818 -1.12503,2.74224 -1.125,4.99219 l 0.0703,2.67187 c 0.1406,1.31255 0.21091,4.99223 0.21094,11.03907 l -0.0703,8.29687 c -3e-5,7.96877 0.14059,12.6797 0.42187,14.13281 0.14059,0.93751 0.52731,1.6172 1.16016,2.03907 0.63278,0.42188 3.19918,0.84375 7.69922,1.26562 l 0,5.83594 c -5.62504,-0.28125 -11.78909,-0.42188 -18.49219,-0.42188 -2.34377,0 -8.67189,0.14063 -18.98437,0.42188 z"
         style="font-size:144px;font-weight:bold;fill:#000000;stroke:#000000;stroke-width:1.5;stroke-miterlimit:4;stroke-opacity:1;stroke-dasharray:none;font-family:Book Antiqua;-inkscape-font-specification:Book Antiqua Bold"
         id="path3599-4" />
    </g>
    <g
       style="font-size:20px;font-style:normal;font-variant:normal;font-weight:normal;font-stretch:normal;text-align:start;line-height:100%;writing-mode:lr-tb;text-anchor:start;fill:url(#linearGradient7906);fill-opacity:1.0;stroke:#000000;font-family:Arial;-inkscape-font-specification:Arial;stroke-width:1.50000000000000000;stroke-miterlimit:4;stroke-dasharray:none"
       id="text2816">
      <path
         d="m 237.38504,505.33313 0,-5.69531 c 8.53117,0.18754 16.14835,0.28129 22.85156,0.28125 6.1874,4e-5 12.86708,-0.0937 20.03907,-0.28125 l 0,4.5 c -2.06262,0.65628 -4.03136,1.42972 -5.90625,2.32031 -0.56261,4.7344 -0.84386,8.76565 -0.84375,12.09375 -1.1e-4,2.39064 0.28114,7.12501 0.84375,14.20312 -9.28135,3.37501 -17.05088,5.66016 -23.3086,6.85547 -6.25789,1.19531 -12.73835,1.79297 -19.4414,1.79297 -18.0938,0 -32.26176,-4.69921 -42.50391,-14.09765 -10.2422,-9.39842 -15.36329,-21.57419 -15.36328,-36.52735 -1e-5,-15.37493 5.22655,-27.67961 15.67969,-36.91406 10.45309,-9.23428 25.45307,-13.85146 45,-13.85156 6.89055,1e-4 13.49991,0.53916 19.82812,1.61718 6.32803,1.07823 12.35146,2.71885 18.07031,4.92188 l 0.63282,1.05469 c -1.35948,5.95321 -2.3673,13.35945 -3.02344,22.21875 l -5.90625,0 c -0.047,-4.45305 -0.35166,-8.39055 -0.91406,-11.8125 -3.0001,-3.46867 -6.85556,-6.07023 -11.56641,-7.80469 -4.71102,-1.73428 -10.27742,-2.60147 -16.69922,-2.60156 -12.04693,9e-5 -21.64458,3.65634 -28.79297,10.96875 -7.14847,7.31257 -10.72268,17.32037 -10.72265,30.02343 -3e-5,13.54692 3.76168,24.45706 11.28515,32.73047 7.52339,8.27345 16.79291,12.41017 27.8086,12.41016 5.8593,10e-6 12.09367,-1.42968 18.70312,-4.28906 0.37491,-3.60936 0.56241,-7.03124 0.5625,-10.26563 -9e-5,-7.21872 -0.42196,-11.20309 -1.26562,-11.95312 -0.84384,-0.74997 -5.85946,-1.38278 -15.04688,-1.89844 z"
         style="font-size:144px;font-weight:bold;fill:url(#linearGradient7906);stroke:#000000;font-family:Book Antiqua;-inkscape-font-specification:Book Antiqua Bold;stroke-width:1.50000000000000000;stroke-miterlimit:4;stroke-dasharray:none;fill-opacity:1.0"
         id="path3593" />
      <path
         d="m 297.29129,510.255 6.1875,0 c 0.0469,6.93753 0.26952,11.00393 0.66797,12.19922 0.39842,1.19533 1.74607,2.76564 4.04297,4.71094 2.29685,1.94532 5.27341,3.52735 8.92969,4.74609 3.65621,1.21876 7.40621,1.82814 11.25,1.82813 6.60932,10e-6 11.89447,-1.75781 15.85546,-5.27344 3.96088,-3.51561 5.94135,-7.89842 5.94141,-13.14844 -6e-5,-4.82809 -1.31256,-8.53121 -3.9375,-11.10937 -2.67193,-2.57809 -7.73443,-4.40621 -15.1875,-5.48438 -11.06253,-1.5937 -18.52737,-3.32808 -22.39453,-5.20312 -3.86721,-1.87495 -6.91408,-4.68745 -9.14063,-8.4375 -2.22657,-3.74994 -3.33985,-8.24994 -3.33984,-13.5 -1e-5,-8.81242 3.10546,-16.27726 9.31641,-22.39453 6.21091,-6.11709 16.13668,-9.17568 29.77734,-9.17578 5.3437,1e-4 10.08979,0.39853 14.23828,1.19531 4.14837,0.79697 8.30852,2.10947 12.48047,3.9375 l 0.70313,1.6875 c -0.75008,2.95321 -1.27742,5.62509 -1.58204,8.01562 -0.30476,2.39071 -0.57429,6.51571 -0.80859,12.375 l -6.11719,0 c -0.23444,-7.21867 -0.586,-11.27335 -1.05468,-12.16406 -0.89069,-1.54679 -3.15241,-3.17569 -6.78516,-4.88672 -3.63287,-1.71084 -7.79302,-2.56631 -12.48047,-2.5664 -6.42191,9e-5 -11.40238,1.55868 -14.94141,4.67578 -3.53909,3.11727 -5.30862,7.1368 -5.30859,12.05859 -3e-5,3.00007 0.72654,5.61335 2.17969,7.83985 1.45309,2.22662 3.48043,3.86725 6.08203,4.92187 2.60152,1.05475 8.19136,2.26178 16.76953,3.62109 7.78119,1.17194 13.05462,2.32037 15.82031,3.44532 4.54681,1.82818 7.99212,4.61724 10.33594,8.36718 2.34367,3.75005 3.51554,8.48442 3.51563,14.20313 -9e-5,9.93752 -3.79696,18.19923 -11.39063,24.78516 -7.59381,6.58594 -17.97661,9.8789 -31.14844,9.8789 -5.8594,0 -11.17971,-0.5625 -15.96093,-1.6875 -4.78127,-1.125 -9.72658,-2.97656 -14.83594,-5.55469 0.84374,-3.28124 1.40624,-6.2578 1.6875,-8.92968 0.37499,-3.70311 0.58593,-8.69529 0.63281,-14.97657 z"
         style="font-size:144px;font-weight:bold;fill:url(#linearGradient7906);stroke:#000000;font-family:Book Antiqua;-inkscape-font-specification:Book Antiqua Bold;stroke-width:1.50000000000000000;stroke-miterlimit:4;stroke-dasharray:none;fill-opacity:1.0"
         id="path3595" />
      <path
         d="m 399.31473,437.97375 c 2.99997,1.1e-4 5.56637,1.06651 7.69922,3.19922 2.13278,2.13291 3.19918,4.72275 3.19922,7.76953 -4e-5,3.00009 -1.06644,5.5665 -3.19922,7.69922 -2.13285,2.1329 -4.72269,3.1993 -7.76953,3.19922 -3.00003,8e-5 -5.56643,-1.06632 -7.69922,-3.19922 -2.13283,-2.13272 -3.19924,-4.69913 -3.19922,-7.69922 -2e-5,-3.04678 1.06639,-5.63662 3.19922,-7.76953 2.13279,-2.13271 4.72263,-3.19911 7.76953,-3.19922 z m -19.61719,101.95313 0,-5.83594 c 5.29687,-0.18749 8.35546,-0.51562 9.17578,-0.98437 0.8203,-0.46875 1.34764,-1.78124 1.58203,-3.9375 0.37499,-2.95311 0.56249,-9.46873 0.5625,-19.54688 -1e-5,-4.35934 -0.0703,-8.39058 -0.21093,-12.09375 l -0.21094,-8.22656 c -2e-5,-2.7187 -0.29299,-4.39448 -0.87891,-5.02734 -0.58595,-0.63276 -2.16798,-0.99604 -4.74609,-1.08985 l -5.27344,-0.21094 0,-5.41406 c 11.29686,-0.84368 20.60154,-2.83587 27.91406,-5.97656 l 1.75782,1.40625 c -0.65629,8.95318 -0.98441,21.98442 -0.98438,39.09375 -3e-5,9.89064 0.16403,15.8672 0.49219,17.92969 0.23434,1.45313 0.66793,2.39063 1.30078,2.8125 0.63278,0.42188 3.7148,0.84375 9.24609,1.26562 l 0,5.83594 c -8.48441,-0.28125 -15.0469,-0.42188 -19.6875,-0.42188 -2.48439,0 -9.16408,0.14063 -20.03906,0.42188 z"
         style="font-size:144px;font-weight:bold;fill:url(#linearGradient7906);stroke:#000000;font-family:Book Antiqua;-inkscape-font-specification:Book Antiqua Bold;stroke-width:1.50000000000000000;stroke-miterlimit:4;stroke-dasharray:none;fill-opacity:1.0"
         id="path3597" />
      <path
         d="m 427.65067,539.92688 0,-5.83594 c 4.87499,-0.18749 7.65233,-0.5039 8.33203,-0.94922 0.67967,-0.4453 1.11326,-1.25389 1.30078,-2.42578 0.37498,-2.29686 0.56248,-7.73436 0.5625,-16.3125 -2e-5,-18.04683 -0.23439,-27.82026 -0.70313,-29.32031 -0.37501,-1.26557 -2.01563,-1.92182 -4.92187,-1.96875 l -4.57031,-0.14063 0,-5.41406 c 5.76561,-0.60931 10.68748,-1.37103 14.76562,-2.28515 4.0781,-0.914 7.75779,-2.02728 11.03906,-3.33985 0.65622,-0.2343 1.14841,-0.35149 1.47657,-0.35156 0.65621,7e-5 0.98434,0.586 0.98437,1.75781 -3e-5,0.89069 -0.0703,2.086 -0.21094,3.58594 -0.0938,0.65631 -0.14065,1.82819 -0.14062,3.51562 l 0,2.53125 11.53125,-8.64843 c 2.43745,-1.82806 6.14057,-2.74212 11.10937,-2.74219 5.01557,7e-5 8.99994,0.97272 11.95313,2.91797 2.95305,1.94537 5.20305,5.05084 6.75,9.3164 l 11.95312,-9.49218 c 2.29679,-1.82806 5.50772,-2.74212 9.63282,-2.74219 7.35927,7e-5 12.77332,1.80475 16.24218,5.41406 3.46864,3.60944 5.20301,9.46881 5.20313,17.57813 l -0.14063,5.83593 c -0.18761,6.46879 -0.28136,12.23441 -0.28125,17.29688 -1.1e-4,6.70314 0.21082,11.03907 0.63282,13.00781 0.28113,1.07814 0.7616,1.83985 1.4414,2.28516 0.67957,0.44532 3.31629,0.8086 7.91016,1.08984 l 0,5.83594 c -5.8595,-0.28125 -10.96887,-0.42188 -15.32813,-0.42188 -4.21885,0 -8.60166,0.14063 -13.14843,0.42188 l -0.84375,-1.33594 c 1.26552,-10.07811 1.89833,-19.92185 1.89843,-29.53125 -10e-5,-11.39058 -0.879,-18.50385 -2.63672,-21.33984 -1.7579,-2.83588 -4.86337,-4.25385 -9.3164,-4.25391 -2.90634,6e-5 -5.46102,0.72662 -7.66406,2.17969 -2.20321,1.45318 -3.65633,3.11724 -4.35938,4.99219 -0.46882,1.31254 -0.7032,5.4141 -0.70312,12.30468 -8e-5,12.37503 0.16398,20.92971 0.49218,25.66407 0.14055,2.10938 0.57415,3.45704 1.30078,4.04297 0.72649,0.58594 3.71477,1.06641 8.96485,1.4414 l 0,5.83594 c -6.14071,-0.28125 -12.16414,-0.42188 -18.07031,-0.42188 -7.35944,0 -13.96881,0.14063 -19.82813,0.42188 l 0,-5.83594 c 4.64057,10e-6 7.35932,-0.66796 8.15625,-2.0039 0.79682,-1.33593 1.19526,-7.20702 1.19531,-17.61329 -5e-5,-11.85933 -0.23443,-19.24214 -0.70312,-22.14843 -0.46881,-2.9062 -1.60552,-5.10933 -3.41016,-6.60938 -1.80474,-1.49994 -4.30083,-2.24994 -7.48828,-2.25 -2.34379,6e-5 -4.4766,0.53912 -6.39844,1.61719 -1.92191,1.07818 -3.53909,2.60161 -4.85156,4.57031 -0.75003,1.07818 -1.12503,2.74224 -1.125,4.99219 l 0.0703,2.67187 c 0.1406,1.31255 0.21091,4.99223 0.21094,11.03907 l -0.0703,8.29687 c -3e-5,7.96877 0.14059,12.6797 0.42187,14.13281 0.14059,0.93751 0.52731,1.6172 1.16016,2.03907 0.63278,0.42188 3.19918,0.84375 7.69922,1.26562 l 0,5.83594 c -5.62504,-0.28125 -11.78909,-0.42188 -18.49219,-0.42188 -2.34377,0 -8.67189,0.14063 -18.98437,0.42188 z"
         style="font-size:144px;font-weight:bold;fill:url(#linearGradient7906);stroke:#000000;font-family:Book Antiqua;-inkscape-font-specification:Book Antiqua Bold;stroke-width:1.50000000000000000;stroke-miterlimit:4;stroke-dasharray:none;fill-opacity:1.0"
         id="path3599" />
    </g>
  </g>
</svg>
