<?xml version="1.0" encoding="UTF-8" standalone="no"?>
<svg
   xmlns:dc="http://purl.org/dc/elements/1.1/"
   xmlns:cc="http://web.resource.org/cc/"
   xmlns:rdf="http://www.w3.org/1999/02/22-rdf-syntax-ns#"
   xmlns:svg="http://www.w3.org/2000/svg"
   xmlns="http://www.w3.org/2000/svg"
   xmlns:sodipodi="http://sodipodi.sourceforge.net/DTD/sodipodi-0.dtd"
   xmlns:inkscape="http://www.inkscape.org/namespaces/inkscape"
   width="212.301"
   height="91.6458"
   id="svg2"
   sodipodi:version="0.32"
   inkscape:version="0.44"
   sodipodi:docname="printlogo.svg"
   sodipodi:docbase="/home/dch1vz/Desktop">
  <metadata
     id="metadata65">
    <rdf:RDF>
      <cc:Work
         rdf:about="">
        <dc:format>image/svg+xml</dc:format>
        <dc:type
           rdf:resource="http://purl.org/dc/dcmitype/StillImage" />
      </cc:Work>
    </rdf:RDF>
  </metadata>
  <sodipodi:namedview
     inkscape:window-height="644"
     inkscape:window-width="1021"
     inkscape:pageshadow="2"
     inkscape:pageopacity="0.0"
     guidetolerance="10.0"
     gridtolerance="10.0"
     objecttolerance="10.0"
     borderopacity="1.0"
     bordercolor="#666666"
     pagecolor="#ffffff"
     id="base"
     inkscape:zoom="3.6175054"
     inkscape:cx="95.962869"
     inkscape:cy="45.384694"
     inkscape:window-x="0"
     inkscape:window-y="0"
     inkscape:current-layer="svg2" />
  <defs
     id="defs4">
    <marker
       id="ArrowEnd"
       viewBox="0 0 10 10"
       refX="0"
       refY="5"
       markerUnits="strokeWidth"
       markerWidth="4"
       markerHeight="3"
       orient="auto">
      <path
         d="M 0 0 L 10 5 L 0 10 z"
         id="path7" />
    </marker>
    <marker
       id="ArrowStart"
       viewBox="0 0 10 10"
       refX="10"
       refY="5"
       markerUnits="strokeWidth"
       markerWidth="4"
       markerHeight="3"
       orient="auto">
      <path
         d="M 10 0 L 0 5 L 10 10 z"
         id="path10" />
    </marker>
  </defs>
  <path
     id="path14"
     d="M 0.006827,91.6458 L 0.006827,91.6458 L 0.006827,91.6458 z "
     style="fill:black;fill-rule:evenodd;stroke:none" />
  <path
     id="path16"
     d="M 32.0737,26.7178 C 33.6916,26.7081 47.0935,26.5621 55.9926,25.3379 C 56.5095,20.439 56.1154,10.9971 55.0488,5.2811 C 54.8178,4.0491 54.0229,2.5232 51.895,2.0291 C 46.4641,0.764198 39.2812,0.0571976 31.6181,0.001297 C 30.9553,5.4861 30.3933,13.0821 30.3933,21.6731 L 30.3982,24.9561 L 30.3982,25.0149 L 31.2131,25.0899 C 31.6049,25.1248 31.9121,25.4607 31.9699,25.8548 C 32.0217,26.2427 32.0717,26.7237 32.0717,26.7237 L 32.0737,26.7178"
     style="fill:#2500a8;fill-rule:evenodd;stroke:none" />
  <path
     id="path18"
     d="M 25.9287,32.9568 L 25.1147,32.876 C 24.7199,32.8401 24.4218,32.5052 24.3789,32.1092 C 24.3449,31.7422 24.2739,31.2403 24.2739,31.2403 L 24.2749,31.2364 C 24.2219,31.2364 24.3047,31.2364 24.2419,31.2364 C 17.7829,31.2364 10.499,31.2823 1.09912,32.5704 C 2.37988,39.8943 10.7509,56.4532 24.226,63.5413 C 24.894,58.0574 25.9428,44.6875 25.9428,36.1033 L 25.9309,33.0054 L 25.9309,32.9595 L 25.9299,32.9485 L 25.9279,32.9573"
     style="fill:#2500a8;fill-rule:evenodd;stroke:none" />
  <path
     id="path20"
     d="M 32.0376,31.2349 C 32.0735,31.2349 31.9978,31.2349 32.0376,31.2349 C 38.5044,31.2349 45.8635,31.2769 55.2863,32.5689 C 54.0066,39.8929 45.6364,56.4517 32.1626,63.5398 C 31.4956,58.056 30.3828,44.6861 30.3828,36.1019 L 30.4326,32.948 L 30.4365,32.948 L 31.2085,32.8711 C 31.6003,32.8343 31.8774,32.5022 31.9275,32.1082 C 31.9682,31.7522 32.0312,31.2393 32.0312,31.2393 L 32.0351,31.2354"
     style="fill:#2500a8;fill-rule:evenodd;stroke:none" />
  <path
     id="path22"
     d="M 13.4758,15.8018 C 13.4399,15.8636 13.4638,15.9817 13.4978,16.0376 C 13.5586,16.0267 13.6936,15.9917 13.7666,15.9437 C 13.8554,15.8868 13.8735,15.8497 13.9675,15.7867 C 13.8747,15.7769 13.4897,15.7769 13.4756,15.8016"
     style="fill:#2500a8;fill-rule:evenodd;stroke:none" />
  <path
     id="path24"
     d="M 13.3437,12.555 L 0.145743,25.3379 C 9.5476,26.6258 17.7727,26.7178 24.2495,26.7239 L 24.2583,26.7239 C 24.2583,26.7239 24.3122,26.2859 24.3581,25.8589 C 24.404,25.461 24.7341,25.1441 25.122,25.108 L 25.832,25.035 L 13.3432,12.554 L 13.3437,12.555 z M 12.1897,16.3008 C 12.1318,16.5127 12.1338,16.7837 12.4306,16.7837 C 12.6626,16.7837 13.0586,16.5899 13.1474,16.5489 L 13.1804,16.6238 C 13.1135,16.6507 12.5905,17.0767 12.1706,17.0787 C 11.9318,17.0826 11.8527,16.9388 11.8527,16.8038 C 11.8527,16.5848 12.0217,16.5118 12.1906,16.3018 L 12.1897,16.3008 z M 16.0026,19.1629 C 16.2246,19.073 16.4814,19.1189 16.4814,19.3729 C 16.4814,19.5977 16.1386,19.7308 16.0666,19.8296 C 16.0307,19.8836 16.0048,19.9185 15.9897,19.9715 C 15.9467,19.8216 16.0266,19.7005 16.0266,19.5987 C 16.0266,19.4798 15.9406,19.4239 15.8198,19.4239 C 15.6418,19.4239 15.1479,19.8619 15.4428,20.5708 C 15.425,20.3208 15.5158,20.1539 15.5608,20.1041 C 15.6037,20.0621 15.6416,19.9661 15.6306,19.8941 C 15.7275,20.073 15.7475,20.15 15.7475,20.2879 C 15.7475,20.5877 15.5256,20.6548 15.6296,20.8777 C 15.6484,20.9385 15.6735,20.9927 15.7036,21.0716 C 15.7036,20.9617 15.7204,20.8716 15.7365,20.7986 C 15.7563,20.7217 15.8703,20.5818 15.8864,20.5276 C 15.9013,20.4688 15.9033,20.4148 15.8874,20.3458 C 15.9882,20.4627 16.0512,20.5716 16.0512,20.7686 C 16.0512,20.9964 15.9514,21.1236 15.9214,21.1856 C 15.8984,21.2544 15.8625,21.3125 15.8545,21.4334 C 15.7837,21.9334 15.5376,22.1673 15.2107,22.1673 C 15.0088,22.1673 14.8579,22.1314 14.7248,22.0523 C 14.7248,22.6941 13.99,22.6441 13.99,23.0701 C 13.99,23.1839 14.0708,23.324 14.1528,23.4009 C 14.2317,23.4808 14.5278,23.5909 14.6367,23.7317 C 14.4768,23.7447 14.3049,23.8006 14.2099,23.9085 C 14.4777,24.0335 14.4668,24.1873 14.4997,24.3885 C 14.2429,24.2615 14.1269,24.3345 14.0578,24.4014 C 13.9799,24.4864 14.0139,24.6014 13.9218,24.7264 C 13.882,24.6265 13.8191,24.5364 13.706,24.5364 C 13.5952,24.5364 13.3632,24.7413 13.3571,24.8052 C 13.3532,24.982 13.2693,25.0491 13.1103,25.0662 C 12.9904,25.1951 13.0214,25.262 13.0244,25.3812 C 12.9206,25.2833 12.9026,25.2183 12.9445,25.0484 C 12.8247,24.9944 12.8396,24.8965 12.8747,24.8084 L 12.8288,24.7776 C 12.768,24.8365 12.6999,24.9136 12.541,24.8426 C 12.4792,24.8675 12.4011,24.9595 12.3862,25.0674 C 12.3474,24.8064 12.4301,24.7115 12.4712,24.6756 C 12.4492,24.6197 12.486,24.4876 12.593,24.4446 C 12.593,24.4158 12.5881,24.4007 12.5852,24.3907 C 12.4934,24.3907 12.4162,24.3528 12.3862,24.3018 C 12.3012,24.2808 12.1843,24.3807 12.1643,24.4456 C 12.1643,24.2957 12.2822,24.1438 12.3681,24.1087 C 12.4651,23.9107 12.6601,23.8748 12.7729,23.9878 C 12.8379,24.0538 12.9907,24.1226 13.1438,24.1226 C 13.3007,24.1226 13.4406,23.9898 13.4765,23.9417 C 13.5144,23.8938 13.5185,23.8877 13.5395,23.8418 C 13.5703,23.763 13.6374,23.6761 13.4777,23.4729 C 13.354,23.3191 13.0388,23.0081 13.0329,22.7962 C 13.0261,22.4334 13.1899,22.2273 13.3537,22.0833 C 13.2959,22.0833 13.3139,22.0833 13.2258,22.0833 C 12.998,22.0833 12.9738,21.9373 12.7439,21.9373 C 12.5691,21.9373 12.467,22.1121 12.467,22.2562 C 12.467,22.4061 12.4968,22.44 12.5498,22.535 C 12.6228,22.6658 12.6457,22.7369 12.6247,22.8729 C 12.49,22.754 12.2978,22.689 12.146,22.825 C 12.0871,22.9959 12.051,23.0638 11.9401,23.1438 C 11.9343,23 11.6384,22.7769 11.3733,23.0169 C 11.3474,23.0857 11.3274,23.2188 11.1445,23.2188 C 11.0337,23.2188 11.0476,23.1919 10.9956,23.1758 C 10.9216,23.2376 10.8596,23.3106 10.8376,23.4026 C 10.7968,23.2647 10.8515,23.1377 10.8955,23.0838 C 10.8796,23.013 10.8886,22.8609 10.9643,22.8228 C 10.9414,22.7959 10.9504,22.815 10.9265,22.7769 C 10.8115,22.8729 10.6357,22.8838 10.5595,22.7769 C 10.4917,22.7898 10.4277,22.8309 10.3567,22.9769 C 10.3379,22.8309 10.4375,22.667 10.5075,22.6231 C 10.5075,22.5132 10.6584,22.4131 10.8115,22.4483 C 10.8213,22.4273 10.8095,22.4175 10.8274,22.3965 C 10.8442,22.3736 10.8205,22.3797 10.8205,22.3797 C 10.7736,22.3609 10.6316,22.3567 10.6386,22.1648 C 10.5488,22.1341 10.4648,22.1778 10.4038,22.2288 C 10.4636,22.073 10.5966,22.025 10.6945,22.0079 C 10.7334,21.948 10.8474,21.9371 10.9023,21.9371 C 11.0131,21.9371 11.0832,21.9869 11.1032,22.056 C 11.2092,22.2459 11.4592,22.3147 11.6931,22.3147 C 11.8181,22.3147 11.9231,22.2188 11.9231,22.0838 C 11.9231,21.9419 11.6843,21.5379 11.6843,21.3479 C 11.6843,21.1631 12.0193,20.806 12.2412,20.806 C 12.9221,20.806 13.0781,21.0938 13.228,21.0938 C 13.447,21.0938 13.4709,21.0518 13.5029,21.012 C 13.184,20.6221 12.9809,20.6292 12.675,20.4202 C 12.5202,20.3074 12.4421,20.1343 12.4192,19.9693 C 12.2282,20.0152 12.0503,20.2632 11.9553,20.4202 C 11.9155,20.3494 11.8515,20.2974 11.7695,20.2974 C 11.6215,20.2974 11.5117,20.4954 11.4416,20.6644 C 11.3957,20.4664 11.2817,20.2935 11.0627,20.2935 C 10.9399,20.2935 10.8007,20.3433 10.7639,20.4205 C 10.7309,20.5054 10.614,20.6243 10.4331,20.5762 C 10.3652,20.6241 10.3051,20.638 10.2573,20.845 C 10.1994,20.5911 10.2573,20.5452 10.2951,20.4822 C 10.2573,20.3133 10.331,20.2535 10.3601,20.2134 L 10.3442,20.1695 C 10.2453,20.2002 10.0984,20.1924 10.0544,20.1055 C 9.9436,20.1036 9.91357,20.1153 9.81957,20.2574 C 9.8374,20.0984 9.92553,19.9654 10.0295,19.9266 C 10.0644,19.8267 10.2004,19.7906 10.3005,19.7906 C 10.3115,19.7676 10.3235,19.7676 10.3244,19.7408 C 10.2566,19.7029 10.2006,19.6199 10.2107,19.5198 C 10.1279,19.4239 10.0388,19.4849 9.96069,19.514 C 10.0935,19.377 10.2505,19.3201 10.3576,19.3851 C 10.5876,19.3082 10.6665,19.4139 10.6884,19.543 C 10.7143,19.691 10.9463,19.7059 11.1853,19.7059 C 11.7021,19.7059 12.5312,19.2259 12.4682,18.8431 C 12.3464,18.8123 12.3344,18.8162 12.2373,18.8162 C 11.9585,18.8162 11.6145,19.158 11.3374,19.169 C 11.4743,19.012 11.3913,18.856 11.4663,18.7371 C 11.3173,18.7352 11.1613,18.835 10.8745,18.806 C 10.9724,18.7461 11.0393,18.5501 11.0393,18.4751 C 11.0393,18.4063 11.0393,18.2632 10.7285,18.2632 C 10.6965,18.273 10.6196,18.3001 10.5556,18.3001 C 10.4817,18.3001 10.2768,18.2791 10.2768,18.1192 C 10.1731,18.0962 10.101,18.1231 9.99096,18.202 C 10.0107,18.094 10.2229,17.951 10.2888,17.9432 C 10.3318,17.8543 10.4138,17.8182 10.4568,17.8243 C 10.4655,17.7784 10.4655,17.8223 10.4655,17.7635 C 10.3618,17.7486 10.2287,17.7117 10.2307,17.5367 C 10.1567,17.4698 10.1108,17.4527 9.94482,17.4988 C 10.1516,17.3431 10.2226,17.3699 10.2888,17.397 C 10.4426,17.2801 10.5666,17.3401 10.6096,17.3912 C 10.6306,17.3702 10.6416,17.3643 10.6516,17.3472 C 10.6196,17.2374 10.6377,17.1282 10.6865,17.0823 C 10.6826,16.9595 10.6276,16.9214 10.5146,16.8965 C 10.7424,16.9004 10.8376,16.9554 10.9145,17.0384 C 11.0434,17.0552 11.1255,17.1744 11.1264,17.2552 C 11.1323,17.47 10.9016,17.616 11.3413,17.847 C 11.4831,17.9158 11.6711,17.9888 11.8711,18.045 C 12.0639,18.1038 12.3049,18.1888 12.406,18.1888 C 12.3291,18.077 12.3562,17.9539 12.2321,17.8338 C 12.373,17.8279 12.549,17.8716 12.677,17.8987 C 12.6491,17.7298 12.6938,17.7239 12.5781,17.6167 C 12.674,17.6297 12.81,17.6316 12.8899,17.6416 C 13.3908,17.6956 13.3977,17.4458 13.4958,17.1307 C 13.321,17.1436 13.0349,17.1805 12.761,17.3665 C 12.7898,17.2747 12.759,17.1937 12.759,17.1187 C 12.759,16.9668 12.8798,16.9368 12.9328,16.9368 C 12.9577,16.9368 13.0346,16.92 13.0918,16.92 C 13.2036,16.92 13.3576,16.8011 13.2876,16.553 C 13.2497,16.4361 13.1596,16.365 13.0598,16.3941 C 12.9839,16.4151 12.9629,16.4151 12.8559,16.4549 C 12.7761,16.4837 12.749,16.5528 12.738,16.6387 C 12.7221,16.5989 12.6882,16.4869 12.6772,16.4598 C 12.6613,16.4258 12.6494,16.408 12.6184,16.3328 C 12.6145,16.306 12.6145,16.306 12.5974,16.2789 C 12.5456,16.1519 12.6272,16.0459 12.7321,16.0289 C 12.8191,16.0101 12.9631,15.9749 13.0471,15.95 C 13.227,15.8931 13.2758,15.8311 13.3169,15.7371 C 13.3567,15.6431 13.3776,15.6043 13.5427,15.6043 C 13.5896,15.6043 13.7705,15.6102 13.8557,15.6102 C 14.0976,15.6102 14.3715,15.4122 14.2846,15.1973 C 14.4494,15.2312 14.5175,15.5022 14.4746,15.6102 C 14.5564,15.6102 14.8164,15.5562 14.8825,15.5042 C 14.8825,15.688 14.7336,15.9131 14.6347,15.969 C 14.7627,15.982 14.9907,15.9632 15.0595,15.9061 C 15.0156,16.0459 14.8706,16.3409 14.7766,16.386 C 15.0085,16.461 15.1516,16.584 15.2553,16.8628 C 15.0844,16.792 14.9834,16.8816 14.8305,16.855 C 15.1413,17.2168 15.2553,17.7679 15.3454,17.9029 C 15.2575,17.8589 15.0935,17.763 14.9694,17.7171 C 15.0964,18.0188 14.9077,18.3111 14.9326,18.4739 C 14.8398,18.4131 14.7126,18.3489 14.6728,18.272 C 14.625,18.3929 14.5158,18.628 14.5568,18.9349 C 14.4751,18.8521 14.342,18.7889 14.2859,18.7349 C 14.167,18.9039 14.0969,19.0137 14.0969,19.4417 C 14.0969,20.0245 14.3679,20.5816 14.4858,20.8067 C 14.6677,21.1446 14.7126,21.4305 14.7378,21.5486 C 14.8017,21.7774 14.9626,21.9236 15.1797,21.9236 C 15.3845,21.9236 15.5595,21.7337 15.5595,21.4988 C 15.5595,21.0779 15.0456,20.8069 15.0456,20.0689 C 15.0456,19.5789 15.4184,19.337 15.4326,19.023 C 15.4394,18.752 15.1897,18.9251 15.0046,18.7981 C 15.2414,18.7522 15.3835,18.4852 15.5964,18.5003 C 15.7863,18.5113 15.8322,18.6082 15.8442,18.7051 C 15.8601,18.8399 15.7712,18.9881 15.7424,19.0469 C 15.9514,18.868 16.0454,18.5879 16.0454,18.448 C 16.0454,18.2403 15.7534,18.0091 15.8244,17.6062 C 15.8374,17.5564 15.8364,17.5584 15.8532,17.5293 C 15.936,17.9812 16.5752,18.0962 16.5752,18.5442 C 16.5752,18.959 16.2114,18.8821 16.0083,19.1702"
     style="fill:#2500a8;fill-rule:evenodd;stroke:none" />
  <path
     id="path26"
     d="M 19.7268,2.6629 C 19.6889,2.7378 19.7138,2.8587 19.7517,2.9129 C 19.8125,2.909 19.9555,2.8699 20.0337,2.8189 C 20.1276,2.76099 20.1506,2.721 20.2495,2.65 C 20.1545,2.6441 19.7417,2.6421 19.7265,2.6629"
     style="fill:#2500a8;fill-rule:evenodd;stroke:none" />
  <path
     id="path28"
     d="M 7.36376,3.534 C 7.32495,3.5999 7.3518,3.7168 7.38964,3.77589 C 7.44555,3.7662 7.57958,3.7261 7.65649,3.68 C 7.74536,3.626 7.77148,3.586 7.86425,3.5191 C 7.77734,3.5113 7.37426,3.5093 7.36425,3.534"
     style="fill:#2500a8;fill-rule:evenodd;stroke:none" />
  <path
     id="path30"
     d="M 25.9387,20.889 C 25.8869,12.8172 25.3479,5.1851 24.7158,0 C 17.029,0.0639954 9.77099,0.818901 4.39184,2.0279 C 2.26806,2.5037 1.47607,4.0477 1.24706,5.2798 C 0.657218,8.4336 -0.086923,14.3587 0.00829184,20.7007 C 0.0141512,21.3846 0.0121981,21.2547 0.0390536,21.9476 C 1.34692,20.6946 13.4228,8.9617 13.4228,8.9617 L 25.9458,21.4676 C 25.9458,20.9986 25.9458,21.3567 25.9399,20.8877 L 25.9387,20.889 z M 6.05468,4.042 C 5.9978,4.2588 5.99877,4.5359 6.29955,4.5359 C 6.53442,4.5359 6.94555,4.3379 7.02734,4.2991 L 7.06225,4.378 C 6.99243,4.39899 6.46533,4.826 6.03344,4.8348 C 5.79247,4.8426 5.70849,4.69099 5.70849,4.5508 C 5.70849,4.334 5.87548,4.2549 6.05541,4.042 L 6.05468,4.042 z M 9.93261,6.959 C 10.1635,6.8631 10.4235,6.9161 10.4235,7.1668 C 10.4235,7.3956 10.0676,7.5337 9.9978,7.6426 C 9.96191,7.6905 9.93383,7.7234 9.91699,7.7806 C 9.87719,7.6307 9.95678,7.5076 9.95678,7.3968 C 9.95678,7.2779 9.87182,7.2178 9.74682,7.2178 C 9.56591,7.2178 9.06396,7.6697 9.36205,8.3868 C 9.34423,8.1329 9.44287,7.9639 9.48388,7.92 C 9.52587,7.8702 9.56567,7.7762 9.55786,7.699 C 9.65576,7.8799 9.67578,7.95679 9.67578,8.0989 C 9.67578,8.4078 9.44995,8.4739 9.55493,8.7017 C 9.57787,8.7657 9.59692,8.8167 9.6289,8.8956 C 9.6289,8.7847 9.64672,8.6937 9.66479,8.6167 C 9.68261,8.5418 9.80371,8.4 9.81664,8.3418 C 9.82958,8.2859 9.83544,8.2269 9.82055,8.158 C 9.91747,8.285 9.98632,8.3868 9.98632,8.5899 C 9.98632,8.8208 9.88134,8.9507 9.85839,9.0198 C 9.82861,9.0857 9.78954,9.15459 9.78149,9.2618 C 9.71655,9.7747 9.46069,10.0118 9.13061,10.0118 C 8.92382,10.0118 8.76562,9.981 8.63574,9.89899 C 8.63574,10.5538 7.88891,10.5018 7.88891,10.9329 C 7.88891,11.0499 7.96484,11.1907 8.04882,11.2728 C 8.13061,11.3497 8.42968,11.4617 8.54662,11.6077 C 8.38281,11.6155 8.21069,11.6746 8.11474,11.7845 C 8.38256,11.9205 8.37451,12.0684 8.40673,12.2723 C 8.14282,12.1434 8.02685,12.2183 7.95678,12.2911 C 7.87597,12.376 7.91601,12.4849 7.82079,12.6141 C 7.78198,12.5142 7.70703,12.4283 7.6018,12.4283 C 7.48901,12.4283 7.24902,12.6312 7.24682,12.6971 C 7.23705,12.879 7.15185,12.9449 6.99096,12.9681 C 6.87206,13.097 6.90014,13.16 6.90209,13.285 C 6.79931,13.1871 6.78417,13.1202 6.82324,12.9371 C 6.70336,12.8912 6.72045,12.7872 6.75341,12.6993 L 6.70556,12.6663 C 6.64379,12.7271 6.57568,12.8101 6.41259,12.7332 C 6.3496,12.7601 6.27075,12.8541 6.25976,12.9681 C 6.21581,12.6971 6.29858,12.6053 6.3457,12.5662 C 6.31689,12.5022 6.35668,12.3772 6.46752,12.3243 C 6.46752,12.2994 6.45654,12.2845 6.45263,12.2725 C 6.36376,12.2725 6.28466,12.2327 6.25683,12.1785 C 6.16894,12.1617 6.05004,12.2635 6.03002,12.3304 C 6.03002,12.1714 6.14794,12.0215 6.23779,11.9886 C 6.34057,11.7837 6.53076,11.7466 6.65356,11.8658 C 6.71655,11.9307 6.87255,11.9986 7.02734,11.9986 C 7.1831,11.9986 7.32617,11.8697 7.36718,11.8196 C 7.40209,11.7679 7.40698,11.7566 7.42602,11.7088 C 7.46191,11.6338 7.5249,11.5418 7.36718,11.3379 C 7.2373,11.179 6.92236,10.867 6.91235,10.646 C 6.90136,10.2791 7.07934,10.0662 7.23632,9.9183 C 7.18139,9.9183 7.19555,9.9183 7.10839,9.9183 C 6.87548,9.9183 6.85253,9.7764 6.61743,9.7764 C 6.43847,9.7764 6.34057,9.9493 6.34057,10.0994 C 6.34057,10.2532 6.3645,10.2842 6.41845,10.3833 C 6.49243,10.5162 6.51928,10.5933 6.49438,10.7293 C 6.35961,10.6043 6.16162,10.5354 6.00659,10.6795 C 5.95263,10.8543 5.91259,10.9214 5.79882,11.0074 C 5.79296,10.8575 5.48901,10.6304 5.22582,10.8765 C 5.19897,10.9405 5.17504,11.0745 4.98705,11.0745 C 4.87426,11.0745 4.88818,11.0496 4.83911,11.0347 C 4.76611,11.0987 4.69824,11.1727 4.67724,11.2706 C 4.64135,11.1207 4.68823,10.9996 4.73901,10.9407 C 4.72314,10.8768 4.72802,10.7217 4.81201,10.6758 C 4.78124,10.649 4.79003,10.6648 4.77221,10.6299 C 4.65234,10.7298 4.47338,10.7398 4.39135,10.6299 C 4.32836,10.6429 4.26049,10.6878 4.18945,10.8318 C 4.17162,10.6839 4.27123,10.5169 4.3413,10.471 C 4.3413,10.3541 4.49413,10.261 4.64819,10.2962 C 4.66601,10.2752 4.64819,10.2623 4.66601,10.2422 C 4.68481,10.2193 4.6621,10.2254 4.6621,10.2254 C 4.61718,10.2024 4.4663,10.1966 4.48022,10.0105 C 4.38745,9.9747 4.29931,10.0184 4.23535,10.0713 C 4.29931,9.9124 4.4353,9.8604 4.53613,9.8565 C 4.57202,9.7835 4.68798,9.7776 4.74511,9.7776 C 4.85204,9.7776 4.92407,9.8294 4.94702,9.8985 C 5.05688,10.0904 5.30493,10.1595 5.55078,10.1595 C 5.67578,10.1595 5.78076,10.0596 5.78076,9.91949 C 5.78076,9.7835 5.53784,9.3697 5.53784,9.1795 C 5.53784,8.9856 5.87475,8.6297 6.10571,8.6297 C 6.7976,8.6297 6.95556,8.9136 7.11059,8.9136 C 7.33154,8.9136 7.36059,8.8716 7.3955,8.8367 C 7.06762,8.4388 6.85668,8.4468 6.55053,8.2278 C 6.38769,8.1241 6.30956,7.93999 6.28564,7.77299 C 6.09765,7.81689 5.91186,8.076 5.82079,8.2359 C 5.7749,8.159 5.70995,8.10889 5.62402,8.10889 C 5.47314,8.10889 5.36303,8.3089 5.28906,8.4798 C 5.24829,8.2859 5.13012,8.1009 4.90624,8.1009 C 4.77831,8.1009 4.64037,8.1587 4.60229,8.2388 C 4.56933,8.3177 4.44946,8.4407 4.26245,8.3926 C 4.19555,8.4405 4.13452,8.46149 4.08959,8.6656 C 4.02563,8.4068 4.09155,8.3567 4.12548,8.2986 C 4.08959,8.1258 4.15844,8.0657 4.19433,8.0257 L 4.17236,7.9798 C 4.07641,8.0105 3.92553,8.0027 3.88037,7.91579 C 3.76953,7.91 3.73559,7.9256 3.64037,8.0657 C 3.65917,7.9048 3.75121,7.7698 3.85327,7.7308 C 3.89208,7.6368 4.02514,7.5979 4.1311,7.5979 C 4.14086,7.5691 4.14892,7.5672 4.15087,7.5462 C 4.08495,7.5103 4.0249,7.4212 4.04296,7.3194 C 3.95507,7.2195 3.86303,7.28149 3.78613,7.3106 C 3.92407,7.1707 4.0791,7.1148 4.18994,7.1797 C 4.4248,7.1048 4.50878,7.21049 4.52685,7.3387 C 4.55371,7.4925 4.78564,7.5115 5.02978,7.5115 C 5.55663,7.5115 6.39965,7.0196 6.33959,6.6255 C 6.21166,6.59669 6.19775,6.6026 6.10375,6.6026 C 5.82177,6.6026 5.46288,6.9524 5.18676,6.9585 C 5.3247,6.7996 5.23852,6.6456 5.31176,6.5228 C 5.16088,6.5188 5.01,6.6167 4.71581,6.5906 C 4.81274,6.5328 4.87768,6.3238 4.87768,6.2537 C 4.87768,6.1829 4.87768,6.0369 4.56591,6.0369 C 4.53613,6.0447 4.45312,6.0718 4.38915,6.0718 C 4.30932,6.0718 4.10327,6.055 4.10327,5.8909 C 3.99951,5.868 3.92529,5.8968 3.81445,5.9759 C 3.83544,5.8609 4.04931,5.722 4.11523,5.711 C 4.15502,5.6231 4.24511,5.584 4.2871,5.5901 C 4.29589,5.5442 4.29589,5.5843 4.29809,5.5293 C 4.19311,5.5145 4.05419,5.4754 4.05712,5.29639 C 3.97729,5.2305 3.93432,5.2125 3.76513,5.2566 C 3.96801,5.1009 4.04809,5.1258 4.11596,5.1548 C 4.27392,5.0379 4.3999,5.0979 4.44189,5.14899 C 4.46288,5.126 4.47973,5.126 4.48876,5.105 C 4.45092,4.9952 4.46899,4.8802 4.51757,4.8301 C 4.51464,4.7112 4.45678,4.6744 4.34863,4.6512 C 4.57739,4.657 4.67162,4.7071 4.7456,4.7911 C 4.88037,4.8121 4.96655,4.9329 4.96655,5.0159 C 4.97534,5.2327 4.73657,5.3829 5.18652,5.6187 C 5.32836,5.6866 5.52343,5.7625 5.72143,5.8187 C 5.9204,5.8746 6.16528,5.9646 6.2644,5.9646 C 6.18847,5.84769 6.22241,5.72269 6.09545,5.6048 C 6.23535,5.5918 6.41137,5.63969 6.54345,5.6687 C 6.5166,5.4939 6.5603,5.492 6.44262,5.3829 C 6.54345,5.3978 6.68456,5.3997 6.76049,5.4097 C 7.27245,5.4637 7.27734,5.20779 7.37426,4.8909 C 7.20141,4.8987 6.90844,4.9427 6.63427,5.1258 C 6.65624,5.0279 6.62841,4.9549 6.62841,4.8699 C 6.62841,4.7181 6.75024,4.688 6.80834,4.688 C 6.83325,4.688 6.90917,4.6802 6.96533,4.6802 C 7.08032,4.6802 7.23315,4.5513 7.1643,4.3033 C 7.12548,4.18439 7.03735,4.1075 6.93554,4.1404 C 6.85473,4.1573 6.84057,4.1573 6.72656,4.2002 C 6.64477,4.231 6.61572,4.2962 6.60668,4.3882 C 6.58886,4.3504 6.55883,4.2344 6.54492,4.2044 C 6.52294,4.1685 6.51806,4.1504 6.48412,4.07159 C 6.47314,4.0467 6.47631,4.0467 6.46533,4.01469 C 6.40746,3.8919 6.49218,3.7859 6.60327,3.76469 C 6.6892,3.7459 6.83618,3.7129 6.92504,3.6839 C 7.10497,3.6299 7.15795,3.5611 7.19287,3.46899 C 7.23364,3.3731 7.26074,3.3331 7.4187,3.3331 C 7.47167,3.3331 7.65649,3.3389 7.74267,3.3389 C 7.98852,3.3389 8.2666,3.1321 8.17651,2.92 C 8.34838,2.9488 8.41845,3.2269 8.37548,3.3389 C 8.45434,3.3389 8.72631,3.283 8.78539,3.23299 C 8.78344,3.4168 8.63842,3.6478 8.53442,3.7039 C 8.66625,3.7188 8.90136,3.6961 8.97241,3.638 C 8.92944,3.7798 8.77758,4.077 8.68163,4.12289 C 8.91259,4.2046 9.06249,4.3277 9.1665,4.6148 C 8.99072,4.53979 8.88964,4.6277 8.73754,4.60699 C 9.05151,4.972 9.16845,5.5328 9.25854,5.6739 C 9.17455,5.628 9.00268,5.5301 8.87866,5.48199 C 9.00756,5.79079 8.81567,6.0928 8.84081,6.253 C 8.74487,6.1922 8.61889,6.126 8.57397,6.044 C 8.52221,6.169 8.4121,6.409 8.45507,6.7168 C 8.37621,6.638 8.2351,6.56689 8.17724,6.521 C 8.0603,6.6939 7.98632,6.7999 7.98632,7.2378 C 7.98632,7.8277 8.26122,8.3968 8.38427,8.6197 C 8.57104,8.9676 8.61303,9.2596 8.64208,9.3765 C 8.69995,9.6094 8.87084,9.7593 9.08788,9.7593 C 9.30078,9.7593 9.47778,9.5674 9.47778,9.3304 C 9.47778,8.9004 8.9558,8.62939 8.9558,7.8755 C 8.9558,7.3755 9.33569,7.1268 9.34667,6.8125 C 9.35546,6.5337 9.09789,6.7027 8.91186,6.5816 C 9.15576,6.5337 9.2998,6.2627 9.51782,6.2728 C 9.71069,6.2857 9.75659,6.3877 9.76367,6.4837 C 9.77954,6.6185 9.69067,6.7776 9.66088,6.8296 C 9.87573,6.6529 9.96581,6.3677 9.96581,6.2259 C 9.96581,6.012 9.67382,5.77589 9.74999,5.3731 C 9.76293,5.3172 9.75683,5.3233 9.7749,5.2891 C 9.86376,5.7481 10.5068,5.867 10.5068,6.31499 C 10.5068,6.74689 10.1399,6.66479 9.9309,6.961 L 9.93261,6.959 z M 18.3647,3.1958 C 18.3029,3.4227 18.3049,3.7107 18.6196,3.7107 C 18.8615,3.7107 19.2876,3.5018 19.3784,3.4588 L 19.4162,3.5357 C 19.3454,3.5687 18.7893,4.0105 18.3403,4.01659 C 18.0915,4.01659 18.0053,3.8707 18.0053,3.72269 C 18.0053,3.4959 18.1792,3.4187 18.3642,3.1958 L 18.3647,3.1958 z M 22.4057,6.23389 C 22.6496,6.13599 22.9177,6.1841 22.9177,6.4529 C 22.9177,6.69289 22.5478,6.83179 22.4758,6.94289 C 22.4399,6.99689 22.4079,7.0328 22.3918,7.0889 C 22.3469,6.9351 22.4306,6.803 22.4306,6.69289 C 22.4306,6.56599 22.3418,6.5071 22.2129,6.5071 C 22.019,6.5071 21.499,6.9739 21.813,7.7239 C 21.7971,7.4571 21.8928,7.282 21.9358,7.23389 C 21.9797,7.1841 22.0236,7.084 22.0107,7.004 C 22.1167,7.19189 22.1345,7.2769 22.1345,7.4187 C 22.1345,7.7417 21.9035,7.80669 22.0095,8.0477 C 22.0293,8.1146 22.0544,8.1666 22.0874,8.25249 C 22.0874,8.1375 22.1071,8.0396 22.1281,7.9566 C 22.143,7.8816 22.2719,7.7356 22.2819,7.6717 C 22.2949,7.6148 22.2998,7.55669 22.2849,7.4817 C 22.3908,7.6146 22.4629,7.7237 22.4629,7.9275 C 22.4629,8.1734 22.354,8.31039 22.32,8.37939 C 22.2922,8.4483 22.2561,8.5174 22.2422,8.6333 C 22.1804,9.1653 21.9143,9.4153 21.5693,9.4153 C 21.3554,9.4153 21.1894,9.3824 21.0505,9.29449 C 21.0505,9.97639 20.2756,9.91949 20.2756,10.3704 C 20.2756,10.4932 20.3574,10.6434 20.4414,10.7293 C 20.5283,10.8082 20.8422,10.9292 20.9592,11.0752 C 20.7893,11.0892 20.6023,11.1502 20.5092,11.2642 C 20.789,11.4002 20.7822,11.5582 20.8171,11.771 C 20.5402,11.6331 20.4162,11.7142 20.3442,11.7898 C 20.2634,11.8797 20.3034,11.9966 20.2082,12.1297 C 20.1633,12.0218 20.0893,11.9297 19.9724,11.9297 C 19.8515,11.9297 19.6106,12.1446 19.6086,12.2156 C 19.5937,12.4014 19.5097,12.4734 19.3388,12.4964 C 19.2129,12.6302 19.2439,12.6963 19.248,12.8213 C 19.1352,12.7215 19.122,12.6534 19.1591,12.4654 C 19.0354,12.4156 19.0493,12.3096 19.0932,12.2176 L 19.0424,12.1827 C 18.9746,12.2476 18.9035,12.3306 18.7385,12.2486 C 18.6735,12.2774 18.5886,12.3755 18.5715,12.4964 C 18.5307,12.2156 18.6174,12.1175 18.6655,12.0735 C 18.6416,12.0105 18.6843,11.8797 18.7934,11.8296 C 18.7934,11.7989 18.7866,11.7898 18.7785,11.7718 C 18.6867,11.7718 18.6096,11.7339 18.5717,11.6739 C 18.4848,11.6551 18.3628,11.7627 18.3349,11.8348 C 18.3349,11.6678 18.4587,11.5098 18.5559,11.4759 C 18.6638,11.264 18.8647,11.2259 18.9807,11.347 C 19.0495,11.4129 19.2116,11.4839 19.3806,11.4839 C 19.5405,11.4839 19.6865,11.3531 19.7285,11.2959 C 19.7693,11.24 19.7724,11.233 19.7924,11.189 C 19.8244,11.1062 19.8974,11.0123 19.7285,10.7991 C 19.5947,10.6321 19.2607,10.3091 19.2566,10.0752 C 19.2487,9.6963 19.4284,9.4734 19.5944,9.3213 C 19.5376,9.3213 19.5537,9.3213 19.4626,9.3213 C 19.2187,9.3213 19.1977,9.1675 18.9487,9.1675 C 18.7658,9.1675 18.6628,9.3484 18.6628,9.50539 C 18.6628,9.6683 18.6877,9.6993 18.7397,9.8013 C 18.8225,9.9412 18.8435,10.0162 18.8225,10.1622 C 18.6845,10.0313 18.4785,9.9642 18.3127,10.1053 C 18.2519,10.292 18.2109,10.3641 18.0969,10.4512 C 18.082,10.3033 17.7729,10.0552 17.498,10.3152 C 17.4702,10.3802 17.445,10.521 17.2522,10.521 C 17.1372,10.521 17.1462,10.4961 17.0974,10.4751 C 17.0166,10.5459 16.9546,10.6211 16.9275,10.721 C 16.8877,10.5711 16.9423,10.4402 16.9924,10.3792 C 16.9765,10.3123 16.9856,10.1504 17.0664,10.1043 C 17.0376,10.0774 17.0495,10.0945 17.0234,10.0545 C 16.9065,10.1604 16.7126,10.1753 16.6286,10.0525 C 16.5617,10.0694 16.4948,10.1143 16.4228,10.2715 C 16.404,10.1126 16.5046,9.9397 16.5808,9.8926 C 16.5808,9.7757 16.7436,9.6717 16.9038,9.7088 C 16.9167,9.69189 16.8989,9.6729 16.9177,9.6529 C 16.9387,9.628 16.9118,9.638 16.9118,9.638 C 16.865,9.615 16.7089,9.6072 16.718,9.4131 C 16.6272,9.3753 16.5361,9.4229 16.4712,9.4791 C 16.5361,9.3111 16.676,9.25809 16.7819,9.2461 C 16.8178,9.1753 16.9389,9.1673 17.0009,9.1673 C 17.1169,9.1673 17.1919,9.21899 17.2087,9.2942 C 17.3266,9.4971 17.5857,9.5672 17.8415,9.5672 C 17.9763,9.5672 18.0774,9.4693 18.0774,9.3213 C 18.0774,9.1734 17.8296,8.7435 17.8296,8.5416 C 17.8296,8.34769 18.1775,7.9666 18.4145,7.9666 C 19.1355,7.9666 19.3025,8.2706 19.4663,8.2706 C 19.6911,8.2706 19.7231,8.22079 19.7612,8.1878 C 19.4223,7.7708 19.2033,7.7798 18.8784,7.5569 C 18.7155,7.44189 18.6325,7.2571 18.6096,7.0782 C 18.4096,7.126 18.2126,7.3951 18.1176,7.564 C 18.0756,7.4822 18.0088,7.4302 17.9187,7.4302 C 17.7588,7.4302 17.6438,7.637 17.5669,7.8162 C 17.5249,7.61629 17.403,7.4224 17.1689,7.4224 C 17.038,7.4224 16.8891,7.4832 16.8559,7.5662 C 16.813,7.6451 16.6889,7.7762 16.497,7.7271 C 16.4292,7.7769 16.3652,7.795 16.3161,8.0101 C 16.2483,7.74129 16.3161,7.6912 16.3559,7.6241 C 16.3161,7.4493 16.3899,7.38409 16.4277,7.3433 L 16.4047,7.2916 C 16.2988,7.3335 16.1418,7.3184 16.0959,7.2308 C 15.9809,7.2249 15.947,7.2417 15.8459,7.3877 C 15.8657,7.2188 15.9638,7.077 16.0688,7.034 C 16.1118,6.9361 16.2478,6.8941 16.3596,6.8941 C 16.3715,6.8653 16.3825,6.8653 16.3835,6.8443 C 16.3105,6.8045 16.2487,6.71339 16.2656,6.6094 C 16.1748,6.5076 16.0788,6.5674 15.9968,6.5984 C 16.1406,6.4505 16.3066,6.3965 16.4216,6.4637 C 16.6626,6.3819 16.7495,6.4944 16.7666,6.6307 C 16.7964,6.7886 17.0385,6.8074 17.2944,6.8074 C 17.8452,6.8074 18.7234,6.2925 18.6633,5.8865 C 18.5305,5.8516 18.5144,5.8577 18.4113,5.8577 C 18.1174,5.8577 17.7465,6.2286 17.4585,6.2305 C 17.6013,6.0677 17.5114,5.9007 17.5944,5.7776 C 17.4326,5.7737 17.2736,5.8755 16.9665,5.8465 C 17.0673,5.7906 17.1413,5.5696 17.1413,5.4986 C 17.1413,5.4236 17.1413,5.2718 16.8115,5.2718 C 16.7817,5.27959 16.6906,5.3077 16.6276,5.3077 C 16.5498,5.3077 16.3318,5.29079 16.3318,5.1158 C 16.2209,5.097 16.1418,5.1255 16.0288,5.2076 C 16.0476,5.09669 16.2776,4.9446 16.3396,4.9327 C 16.3855,4.8428 16.4756,4.8018 16.5214,4.8077 C 16.5293,4.7579 16.5293,4.80379 16.5293,4.7427 C 16.4265,4.73299 16.2773,4.6888 16.2824,4.5079 C 16.2016,4.4349 16.1535,4.418 15.9785,4.4639 C 16.1975,4.2991 16.2763,4.324 16.3435,4.3521 C 16.5053,4.2312 16.6333,4.2981 16.6833,4.3521 C 16.7043,4.3252 16.7202,4.3213 16.7292,4.3042 C 16.6963,4.18729 16.7124,4.0704 16.7671,4.01839 C 16.7612,3.8914 16.7053,3.8536 16.5832,3.8265 C 16.832,3.8323 16.924,3.8882 17.0012,3.9744 C 17.145,3.99319 17.2312,4.11819 17.2351,4.2054 C 17.24,4.4383 16.9922,4.5882 17.4638,4.8304 C 17.6037,4.9112 17.8108,4.9822 18.0207,5.0452 C 18.2265,5.1011 18.4826,5.199 18.5805,5.199 C 18.5036,5.0721 18.5366,4.9471 18.4087,4.8201 C 18.5566,4.81039 18.7375,4.866 18.8755,4.8909 C 18.8435,4.7029 18.8913,4.7029 18.7695,4.5879 C 18.8713,4.6067 19.0183,4.6067 19.1013,4.6167 C 19.6342,4.6736 19.6411,4.409 19.7422,4.0708 C 19.5622,4.0896 19.2553,4.1268 18.9633,4.3228 C 18.9902,4.221 18.9633,4.146 18.9633,4.0599 C 18.9633,3.897 19.0883,3.8689 19.1472,3.8689 C 19.174,3.8689 19.2541,3.8541 19.3142,3.8541 C 19.434,3.8541 19.593,3.7203 19.519,3.4622 C 19.4851,3.3414 19.3891,3.2642 19.2802,3.2933 C 19.2024,3.3162 19.1804,3.3143 19.0673,3.355 C 18.9746,3.3948 18.9475,3.461 18.9423,3.5508 C 18.9235,3.51099 18.8894,3.397 18.8755,3.3609 C 18.8596,3.326 18.8435,3.303 18.8137,3.2229 C 18.8027,3.198 18.8027,3.198 18.7917,3.1651 C 18.7319,3.0362 18.8225,2.92509 18.9365,2.9041 C 19.0283,2.8812 19.1804,2.8462 19.2714,2.8213 C 19.4572,2.7635 19.5163,2.6905 19.5522,2.5945 C 19.593,2.4927 19.6191,2.44849 19.791,2.44849 C 19.844,2.44849 20.0349,2.4544 20.1237,2.4544 C 20.3816,2.4544 20.6687,2.2496 20.5747,2.0225 C 20.7526,2.0555 20.8266,2.3433 20.7805,2.4544 C 20.8654,2.4544 21.1464,2.40459 21.2104,2.3506 C 21.2104,2.54449 21.0586,2.7864 20.9526,2.83839 C 21.0886,2.8572 21.3286,2.83649 21.4006,2.7754 C 21.3586,2.9192 21.2006,3.2322 21.1008,3.2764 C 21.3408,3.3614 21.4987,3.49319 21.6086,3.7894 C 21.4238,3.7144 21.3166,3.8042 21.1577,3.77959 C 21.4836,4.1656 21.6086,4.7464 21.7016,4.8946 C 21.6167,4.8487 21.4358,4.7427 21.3027,4.69659 C 21.4375,5.0174 21.2387,5.3304 21.2697,5.4996 C 21.1679,5.4366 21.0349,5.3687 20.9909,5.2806 C 20.938,5.4114 20.8252,5.6644 20.8672,5.9874 C 20.7822,5.9004 20.6403,5.8294 20.5764,5.7784 C 20.4504,5.9532 20.3806,6.0682 20.3806,6.5232 C 20.3806,7.1402 20.6684,7.7361 20.7934,7.96709 C 20.9882,8.326 21.0354,8.63599 21.0664,8.7569 C 21.1262,8.99879 21.2942,9.1568 21.5254,9.1568 C 21.7492,9.1568 21.9343,8.9529 21.9343,8.70679 C 21.9343,8.2588 21.3874,7.971 21.3874,7.1871 C 21.3874,6.6683 21.7893,6.4122 21.8003,6.0833 C 21.8071,5.7913 21.5405,5.9725 21.3425,5.8414 C 21.5944,5.7916 21.7505,5.5064 21.9773,5.5206 C 22.174,5.5335 22.2212,5.6375 22.2312,5.7454 C 22.247,5.8833 22.1552,6.0452 22.1252,6.10139 C 22.3481,5.9134 22.445,5.6204 22.445,5.4676 C 22.445,5.2508 22.1352,5.0047 22.2182,4.5796 C 22.2302,4.5257 22.227,4.5318 22.2412,4.4927 C 22.3339,4.9715 23.008,5.0965 23.008,5.5667 C 23.008,6.0125 22.6252,5.93169 22.4062,6.23759"
     style="fill:#2500a8;fill-rule:evenodd;stroke:none" />
  <text
     xml:space="preserve"
     style="font-size:56px;font-style:normal;font-variant:normal;font-weight:bold;font-stretch:normal;text-align:start;line-height:125%;writing-mode:lr-tb;text-anchor:start;fill:black;fill-opacity:1;stroke:none;stroke-width:1px;stroke-linecap:butt;stroke-linejoin:miter;stroke-opacity:1;font-family:Nimbus Sans L"
     x="55.839584"
     y="64.278877"
     id="text1966"
     sodipodi:linespacing="125%"><tspan
       sodipodi:role="line"
       id="tspan1968"
       x="55.839584"
       y="64.278877">GSim</tspan></text>
</svg>
