<?xml version="1.0" encoding="UTF-8" standalone="no"?>
<!-- Created with Inkscape (http://www.inkscape.org/) -->
<svg
   xmlns:dc="http://purl.org/dc/elements/1.1/"
   xmlns:cc="http://web.resource.org/cc/"
   xmlns:rdf="http://www.w3.org/1999/02/22-rdf-syntax-ns#"
   xmlns:svg="http://www.w3.org/2000/svg"
   xmlns="http://www.w3.org/2000/svg"
   xmlns:xlink="http://www.w3.org/1999/xlink"
   xmlns:sodipodi="http://sodipodi.sourceforge.net/DTD/sodipodi-0.dtd"
   xmlns:inkscape="http://www.inkscape.org/namespaces/inkscape"
   width="430"
   height="160"
   id="svg2"
   sodipodi:version="0.32"
   inkscape:version="0.45.1"
   sodipodi:docbase="/home/dch1vz/gsim-cmatrix/images"
   sodipodi:docname="printlogo.svg"
   inkscape:output_extension="org.inkscape.output.svg.inkscape"
   version="1.0">
  <defs
     id="defs4">
    <linearGradient
       id="linearGradient4472">
      <stop
         style="stop-color:#811e70;stop-opacity:1;"
         offset="0"
         id="stop4474" />
      <stop
         style="stop-color:#fffffd;stop-opacity:1;"
         offset="1"
         id="stop4476" />
    </linearGradient>
    <linearGradient
       inkscape:collect="always"
       id="linearGradient4452">
      <stop
         style="stop-color:#000000;stop-opacity:1;"
         offset="0"
         id="stop4454" />
      <stop
         style="stop-color:#000000;stop-opacity:0;"
         offset="1"
         id="stop4456" />
    </linearGradient>
    <linearGradient
       id="linearGradient3417">
      <stop
         id="stop3419"
         offset="0"
         style="stop-color:#ff0000;stop-opacity:0" />
      <stop
         id="stop3421"
         offset="1"
         style="stop-color:#ff0000;stop-opacity:1;" />
    </linearGradient>
    <linearGradient
       id="linearGradient3229">
      <stop
         style="stop-color:#0000ff;stop-opacity:1;"
         offset="0"
         id="stop3231" />
      <stop
         style="stop-color:#000000;stop-opacity:0;"
         offset="1"
         id="stop3233" />
    </linearGradient>
    <linearGradient
       id="linearGradient3133">
      <stop
         style="stop-color:#ff0000;stop-opacity:0.20618556;"
         offset="0"
         id="stop3135" />
      <stop
         style="stop-color:#ff0000;stop-opacity:1;"
         offset="1"
         id="stop3137" />
    </linearGradient>
    <radialGradient
       inkscape:collect="always"
       xlink:href="#linearGradient3133"
       id="radialGradient3185"
       cx="383.85797"
       cy="457.38235"
       fx="383.85797"
       fy="457.38235"
       r="330.26913"
       gradientTransform="matrix(1,0,0,0.7767241,0,102.12247)"
       gradientUnits="userSpaceOnUse" />
    <linearGradient
       inkscape:collect="always"
       xlink:href="#linearGradient3229"
       id="linearGradient3237"
       x1="80.9375"
       y1="299.71875"
       x2="246.15625"
       y2="299.71875"
       gradientUnits="userSpaceOnUse" />
    <radialGradient
       inkscape:collect="always"
       xlink:href="#linearGradient4452"
       id="radialGradient4465"
       gradientUnits="userSpaceOnUse"
       gradientTransform="matrix(1,0,0,0.4581314,0,178.15136)"
       cx="408.87677"
       cy="562.49597"
       fx="408.87677"
       fy="562.49597"
       r="299.23294" />
    <radialGradient
       inkscape:collect="always"
       xlink:href="#linearGradient4472"
       id="radialGradient4594"
       gradientUnits="userSpaceOnUse"
       gradientTransform="matrix(2.0186495,0.2152076,4.8566016e-2,-0.4555499,-352.23924,857.77992)"
       cx="262.23608"
       cy="343.6286"
       fx="262.23608"
       fy="343.6286"
       r="211.22325" />
    <radialGradient
       inkscape:collect="always"
       xlink:href="#linearGradient4472"
       id="radialGradient3143"
       gradientUnits="userSpaceOnUse"
       gradientTransform="matrix(2.0186495,-0.2152076,4.8566016e-2,0.4555499,-347.23924,199.58226)"
       cx="262.23608"
       cy="343.6286"
       fx="262.23608"
       fy="343.6286"
       r="211.22325" />
    <radialGradient
       inkscape:collect="always"
       xlink:href="#linearGradient4472"
       id="radialGradient3149"
       gradientUnits="userSpaceOnUse"
       gradientTransform="matrix(2.0186495,-0.2152076,4.8566016e-2,0.4555499,-191.23924,48.58226)"
       cx="262.23608"
       cy="343.6286"
       fx="262.23608"
       fy="343.6286"
       r="211.22325" />
    <radialGradient
       inkscape:collect="always"
       xlink:href="#linearGradient4472"
       id="radialGradient4124"
       gradientUnits="userSpaceOnUse"
       gradientTransform="matrix(2.0186495,0.2152076,4.8566016e-2,-0.4555499,-381.23924,1027.7799)"
       cx="262.23608"
       cy="343.6286"
       fx="262.23608"
       fy="343.6286"
       r="211.22325" />
    <radialGradient
       inkscape:collect="always"
       xlink:href="#linearGradient4472"
       id="radialGradient4130"
       gradientUnits="userSpaceOnUse"
       gradientTransform="matrix(2.0186495,-0.2152076,4.8566016e-2,0.4555499,-377.23924,28.58226)"
       cx="262.23608"
       cy="343.6286"
       fx="262.23608"
       fy="343.6286"
       r="211.22325" />
    <radialGradient
       inkscape:collect="always"
       xlink:href="#linearGradient4472"
       id="radialGradient4233"
       gradientUnits="userSpaceOnUse"
       gradientTransform="matrix(2.0186495,-0.2152076,4.8566016e-2,0.4555499,-356.23924,190.58226)"
       cx="262.23608"
       cy="343.6286"
       fx="262.23608"
       fy="343.6286"
       r="211.22325" />
  </defs>
  <sodipodi:namedview
     id="base"
     pagecolor="#ffffff"
     bordercolor="#666666"
     borderopacity="1.0"
     gridtolerance="10000"
     guidetolerance="10"
     objecttolerance="10"
     inkscape:pageopacity="0.0"
     inkscape:pageshadow="2"
     inkscape:zoom="1"
     inkscape:cx="375"
     inkscape:cy="142.25361"
     inkscape:document-units="px"
     inkscape:current-layer="layer1"
     inkscape:window-width="1280"
     inkscape:window-height="950"
     inkscape:window-x="0"
     inkscape:window-y="0"
     width="430px"
     height="160px" />
  <metadata
     id="metadata7">
    <rdf:RDF>
      <cc:Work
         rdf:about="">
        <dc:format>image/svg+xml</dc:format>
        <dc:type
           rdf:resource="http://purl.org/dc/dcmitype/StillImage" />
      </cc:Work>
    </rdf:RDF>
  </metadata>
  <g
     inkscape:label="Layer 1"
     inkscape:groupmode="layer"
     id="layer1"
     transform="translate(-154.91168,-393.8025)">
    <path
       transform="matrix(1.341541,0,-0.9461958,0.7454114,0,0)"
       style="font-size:107.33924866px;font-style:normal;font-variant:normal;font-weight:normal;font-stretch:normal;text-align:start;line-height:125%;writing-mode:lr-tb;text-anchor:start;fill:#666666;fill-opacity:1;stroke:none;stroke-width:0.99999994px;stroke-linecap:butt;stroke-linejoin:miter;stroke-opacity:1;font-family:Nimbus Sans L"
       d="M 700.02829,675.6464 L 668.68523,675.6464 L 668.68523,689.06381 L 686.50354,689.06381 C 686.07419,693.46471 685.00079,696.1482 682.63933,698.93902 C 678.77512,703.66194 672.87145,706.45277 666.64578,706.45277 C 653.65775,706.45277 644.31922,695.07479 644.31922,678.97392 C 644.31922,662.12167 652.58435,651.92443 666.21643,651.92443 C 671.79806,651.92443 676.521,653.53452 680.06319,656.64736 C 682.31731,658.57946 683.49805,660.40423 684.89345,664.48312 L 700.02829,664.48312 C 698.09618,648.38225 685.00078,638.18501 666.10909,638.18501 C 643.56787,638.18501 628.21833,654.82261 628.21833,679.1886 C 628.21833,702.91055 643.6752,720.19219 664.82102,720.19219 C 675.34025,720.19219 682.42466,716.43531 688.43565,707.6335 L 690.36776,717.93807 L 700.02829,717.93807 L 700.02829,675.6464 M 772.3045,663.30239 C 772.3045,656.11067 770.69441,651.38773 766.8302,647.09416 C 761.57058,641.29785 752.87608,638.18501 741.60547,638.18501 C 722.82112,638.18501 711.97984,646.98684 711.97984,662.229 C 711.97984,674.35832 718.09819,680.26199 733.98439,683.26749 L 744.93299,685.41427 C 755.6669,687.45372 759.63847,690.45923 759.63847,696.79224 C 759.63847,703.33992 753.62746,707.31148 743.8596,707.31148 C 732.911,707.31148 726.79266,702.69589 726.25596,694.32343 L 710.58443,694.32343 C 711.55048,711.06834 723.0358,720.19219 743.00088,720.19219 C 763.18064,720.19219 775.09532,710.74632 775.09532,694.86013 C 775.09532,682.51613 768.86963,676.07576 754.37884,673.28494 L 742.14217,670.92348 C 730.65688,668.66935 727.32935,666.41522 727.32935,660.72625 C 727.32935,654.82259 732.58898,651.06572 740.8541,651.06572 C 751.05132,651.06572 756.74031,655.35929 757.277,663.30239 L 772.3045,663.30239 M 801.06807,659.76019 L 786.04058,659.76019 L 786.04058,717.72339 L 801.06807,717.72339 L 801.06807,659.76019 M 801.06807,639.47308 L 786.04058,639.47308 L 786.04058,652.89048 L 801.06807,652.89048 L 801.06807,639.47308 M 815.05907,659.76019 L 815.05907,717.72339 L 830.08656,717.72339 L 830.08656,682.94547 C 830.08656,675.86109 833.95078,671.56751 840.39113,671.56751 C 845.43607,671.56751 848.54891,674.46568 848.54891,679.08126 L 848.54891,717.72339 L 863.57641,717.72339 L 863.57641,682.94547 C 863.57641,675.86109 867.44063,671.56751 873.88098,671.56751 C 878.92592,671.56751 882.03876,674.46568 882.03876,679.08126 L 882.03876,717.72339 L 897.06625,717.72339 L 897.06625,676.7198 C 897.06625,665.44919 890.19653,658.79414 878.6039,658.79414 C 871.30484,658.79414 866.15255,661.37029 861.6443,667.38128 C 858.85348,661.90698 853.05716,658.79414 845.86543,658.79414 C 839.21041,658.79414 834.91682,661.04827 829.97922,666.95192 L 829.97922,659.76019 L 815.05907,659.76019"
       id="text4480" />
    <path
       style="font-size:144px;font-style:normal;font-variant:normal;font-weight:normal;font-stretch:normal;text-align:start;line-height:125%;writing-mode:lr-tb;text-anchor:start;fill:#80208c;fill-opacity:1;stroke:#000000;stroke-width:1px;stroke-linecap:butt;stroke-linejoin:miter;stroke-opacity:1;font-family:Nimbus Sans L"
       d="M 263.42466,477.6145 L 221.37666,477.6145 L 221.37666,495.6145 L 245.28066,495.6145 C 244.70467,501.51849 243.26466,505.1185 240.09666,508.8625 C 234.91267,515.19849 226.99266,518.9425 218.64066,518.9425 C 201.21668,518.9425 188.68866,503.67848 188.68866,482.0785 C 188.68866,459.47052 199.77668,445.7905 218.06466,445.7905 C 225.55266,445.7905 231.88867,447.9505 236.64066,452.1265 C 239.66466,454.7185 241.24867,457.16651 243.12066,462.6385 L 263.42466,462.6385 C 260.83267,441.03852 243.26464,427.3585 217.92066,427.3585 C 187.68069,427.3585 167.08866,449.67853 167.08866,482.3665 C 167.08866,514.19047 187.82469,537.3745 216.19266,537.3745 C 230.30465,537.3745 239.80867,532.33449 247.87266,520.5265 L 250.46466,534.3505 L 263.42466,534.3505 L 263.42466,477.6145 M 360.38616,461.0545 C 360.38616,451.40651 358.22616,445.07049 353.04216,439.3105 C 345.98617,431.53451 334.32215,427.3585 319.20216,427.3585 C 294.00219,427.3585 279.45816,439.16652 279.45816,459.6145 C 279.45816,475.88648 287.66619,483.8065 308.97816,487.8385 L 323.66616,490.7185 C 338.06615,493.4545 343.39416,497.48651 343.39416,505.9825 C 343.39416,514.76649 335.33015,520.0945 322.22616,520.0945 C 307.53818,520.0945 299.33016,513.90249 298.61016,502.6705 L 277.58616,502.6705 C 278.88216,525.13448 294.29019,537.3745 321.07416,537.3745 C 348.14614,537.3745 364.13016,524.70248 364.13016,503.3905 C 364.13016,486.83052 355.77815,478.1905 336.33816,474.4465 L 319.92216,471.2785 C 304.51418,468.2545 300.05016,465.23049 300.05016,457.5985 C 300.05016,449.67851 307.10618,444.6385 318.19416,444.6385 C 331.87415,444.6385 339.50617,450.39851 340.22616,461.0545 L 360.38616,461.0545 M 398.97366,456.3025 L 378.81366,456.3025 L 378.81366,534.0625 L 398.97366,534.0625 L 398.97366,456.3025 M 398.97366,429.0865 L 378.81366,429.0865 L 378.81366,447.0865 L 398.97366,447.0865 L 398.97366,429.0865 M 417.74316,456.3025 L 417.74316,534.0625 L 437.90316,534.0625 L 437.90316,487.4065 C 437.90316,477.90251 443.08717,472.1425 451.72716,472.1425 C 458.49516,472.1425 462.67116,476.03051 462.67116,482.2225 L 462.67116,534.0625 L 482.83116,534.0625 L 482.83116,487.4065 C 482.83116,477.90251 488.01517,472.1425 496.65516,472.1425 C 503.42316,472.1425 507.59916,476.03051 507.59916,482.2225 L 507.59916,534.0625 L 527.75916,534.0625 L 527.75916,479.0545 C 527.75916,463.93452 518.54315,455.0065 502.99116,455.0065 C 493.19917,455.0065 486.28716,458.46251 480.23916,466.5265 C 476.49517,459.18251 468.71916,455.0065 459.07116,455.0065 C 450.14317,455.0065 444.38316,458.03051 437.75916,465.9505 L 437.75916,456.3025 L 417.74316,456.3025"
       id="text4468" />
    <path
       style="font-size:144px;font-style:normal;font-variant:normal;font-weight:normal;font-stretch:normal;text-align:start;line-height:125%;writing-mode:lr-tb;text-anchor:start;opacity:0.74157302;fill:#000000;fill-opacity:1;stroke:none;stroke-width:1px;stroke-linecap:butt;stroke-linejoin:miter;stroke-opacity:1;font-family:Nimbus Sans L"
       d="M 394.5625,429.375 L 394.5625,443.375 L 378.375,443.375 L 378.375,447.375 L 398.5625,447.375 L 398.5625,429.375 L 394.5625,429.375 z M 349.59375,436.71875 C 354.08222,442.18756 355.96876,448.31766 355.96875,457.34375 L 339.15625,457.34375 C 339.49861,458.59326 339.71606,459.91649 339.8125,461.34375 L 359.96875,461.34375 C 359.96876,451.69576 357.80899,445.35374 352.625,439.59375 C 351.69903,438.57329 350.67583,437.61391 349.59375,436.71875 z M 250.28125,438.4375 C 255.0102,443.98095 258.0369,450.91169 259,458.9375 L 241.125,458.9375 C 241.65073,460.07767 242.15494,461.38079 242.6875,462.9375 L 263,462.9375 C 261.78885,452.84458 257.29748,444.48433 250.28125,438.4375 z M 313.78125,440.9375 C 302.69326,440.9375 295.62501,445.95501 295.625,453.875 C 295.625,458.02595 296.97266,460.83389 300.65625,463 C 299.93198,461.55337 299.625,459.86807 299.625,457.875 C 299.62501,449.95501 306.69326,444.9375 317.78125,444.9375 C 324.29596,444.9375 329.41556,446.26197 333.09375,448.78125 C 329.67998,443.64083 323.16392,440.9375 313.78125,440.9375 z M 213.65625,442.09375 C 195.36827,442.09375 184.25001,455.76703 184.25,478.375 C 184.25,491.71809 189.05024,502.62833 196.8125,509.03125 C 191.44166,502.5085 188.25,493.24282 188.25,482.375 C 188.25001,459.76703 199.36827,446.09375 217.65625,446.09375 C 224.59699,446.09375 230.53908,447.93431 235.15625,451.53125 C 234.32014,450.39488 233.38327,449.40441 232.21875,448.40625 C 227.46675,444.23025 221.14424,442.09375 213.65625,442.09375 z M 394.5625,456.59375 L 394.5625,530.34375 L 378.375,530.34375 L 378.375,534.34375 L 398.5625,534.34375 L 398.5625,456.59375 L 394.5625,456.59375 z M 433.34375,456.59375 L 433.34375,462.25 C 434.70319,460.62458 436.02223,459.19792 437.34375,457.96875 L 437.34375,456.59375 L 433.34375,456.59375 z M 474.03125,459.9375 C 474.70234,460.83382 475.29166,461.79085 475.8125,462.8125 C 476.0085,462.55117 476.20837,462.31419 476.40625,462.0625 C 475.66476,461.29636 474.89213,460.58024 474.03125,459.9375 z M 518.875,460.03125 C 521.78364,463.96241 523.34375,469.13493 523.34375,475.34375 L 523.34375,530.34375 L 507.1875,530.34375 L 507.1875,534.34375 L 527.34375,534.34375 L 527.34375,479.34375 C 527.34375,470.72524 524.33035,464.11939 518.875,460.03125 z M 447.3125,468.4375 C 438.67251,468.4375 433.46876,474.18352 433.46875,483.6875 L 433.46875,530.34375 L 417.3125,530.34375 L 417.3125,534.34375 L 437.46875,534.34375 L 437.46875,487.6875 C 437.46876,478.18352 442.67251,472.4375 451.3125,472.4375 C 453.5898,472.4375 455.55747,472.8987 457.1875,473.71875 C 455.55394,470.39047 452.09844,468.4375 447.3125,468.4375 z M 492.21875,468.4375 C 483.57876,468.4375 478.40625,474.18352 478.40625,483.6875 L 478.40625,530.34375 L 462.25,530.34375 L 462.25,534.34375 L 482.40625,534.34375 L 482.40625,487.6875 C 482.40625,478.18352 487.57876,472.4375 496.21875,472.4375 C 498.5006,472.4375 500.49313,472.89554 502.125,473.71875 C 500.4923,470.38793 497.00668,468.4375 492.21875,468.4375 z M 283.6875,476.21875 C 288.17405,482.09988 296.13409,485.77368 308.5625,488.125 L 323.25,491 C 329.64313,492.21469 334.23054,493.71592 337.375,495.71875 C 334.88748,491.47475 329.29347,488.90825 319.25,487 L 304.5625,484.125 C 295.23851,482.361 288.40512,479.84494 283.6875,476.21875 z M 259,477.90625 L 259,530.65625 L 249.28125,530.65625 L 250.03125,534.65625 L 263,534.65625 L 263,477.90625 L 259,477.90625 z M 354.6875,482.25 C 358.11387,486.71636 359.71875,492.44251 359.71875,499.6875 C 359.71875,520.99948 343.72821,533.65624 316.65625,533.65625 C 302.97139,533.65625 292.25544,530.46546 284.875,524.34375 C 292.1156,533.06676 304.24872,537.65625 320.65625,537.65625 C 347.72821,537.65624 363.71875,524.99948 363.71875,503.6875 C 363.71875,494.05796 360.87368,487.11807 354.6875,482.25 z M 220.9375,491.90625 L 220.9375,495.90625 L 240.25,495.90625 C 240.51233,494.68807 240.70089,493.37053 240.84375,491.90625 L 220.9375,491.90625 z M 294.8125,502.96875 C 295.82462,506.853 297.95779,509.95432 301.15625,512.1875 C 299.41318,509.65784 298.41877,506.57662 298.1875,502.96875 L 294.8125,502.96875 z M 243.4375,516.8125 C 235.37351,528.62049 225.89324,533.65624 211.78125,533.65625 C 199.66003,533.65625 188.90594,529.4247 180.59375,522.09375 C 189.32375,531.86775 201.59726,537.65625 215.78125,537.65625 C 228.41011,537.65624 237.32507,533.6235 244.84375,524.3125 L 243.4375,516.8125 z "
       id="text4590" />
    <path
       style="font-size:144px;font-style:normal;font-variant:normal;font-weight:normal;font-stretch:normal;text-align:start;line-height:125%;writing-mode:lr-tb;text-anchor:start;opacity:0.96067415;fill:#ffc4ff;fill-opacity:1;stroke:none;stroke-width:1px;stroke-linecap:butt;stroke-linejoin:miter;stroke-opacity:1;font-family:Nimbus Sans L"
       d="M 215.5,426.65625 C 185.26003,426.65625 164.65625,448.96828 164.65625,481.65625 C 164.65625,499.84633 171.42905,515.20264 182.53125,525.03125 C 173.83636,515.26133 168.65625,501.5329 168.65625,485.65625 C 168.65625,452.96828 189.26003,430.65625 219.5,430.65625 C 232.96399,430.65625 244.22345,434.51689 252.21875,441.375 C 244.21654,432.04086 231.38875,426.65625 215.5,426.65625 z M 316.78125,426.65625 C 291.58128,426.65625 277.03125,438.45827 277.03125,458.90625 C 277.03125,468.04129 279.61622,474.52716 285.65625,479.1875 C 282.46815,474.98923 281.03125,469.67011 281.03125,462.90625 C 281.03125,442.45827 295.58128,430.65625 320.78125,430.65625 C 333.89638,430.65625 344.3997,433.77946 351.5625,439.6875 C 351.26191,439.32233 350.949,438.95375 350.625,438.59375 C 343.56901,430.81776 331.90123,426.65625 316.78125,426.65625 z M 376.375,428.375 L 376.375,446.375 L 380.375,446.375 L 380.375,432.375 L 396.5625,432.375 L 396.5625,428.375 L 376.375,428.375 z M 335.125,451.8125 C 336.67363,454.15988 337.5875,457.01375 337.8125,460.34375 L 341.15625,460.34375 C 340.16369,456.72121 338.11653,453.87306 335.125,451.8125 z M 456.65625,454.3125 C 449.56056,454.3125 444.46142,456.20869 439.34375,460.96875 L 439.34375,469.25 C 445.96774,461.33001 451.72827,458.3125 460.65625,458.3125 C 466.65854,458.3125 471.93565,459.91638 475.96875,462.90625 C 471.81169,457.39134 464.93674,454.3125 456.65625,454.3125 z M 500.5625,454.3125 C 491.08784,454.3125 484.31448,457.54765 478.40625,465.0625 C 479.75267,466.45368 480.90712,468.03655 481.8125,469.8125 C 487.86049,461.74851 494.77051,458.3125 504.5625,458.3125 C 511.24973,458.3125 516.7597,459.94731 520.875,463.03125 C 516.7004,457.38909 509.72827,454.3125 500.5625,454.3125 z M 237.15625,454.53125 C 238.49133,456.34578 239.53639,458.57273 240.6875,461.9375 L 243.125,461.9375 C 241.80274,459.06986 240.38245,457.26085 238.21875,455.40625 C 237.87145,455.10105 237.5203,454.81486 237.15625,454.53125 z M 376.375,455.59375 L 376.375,533.34375 L 380.375,533.34375 L 380.375,459.59375 L 396.5625,459.59375 L 396.5625,455.59375 L 376.375,455.59375 z M 415.3125,455.59375 L 415.3125,533.34375 L 419.3125,533.34375 L 419.3125,459.59375 L 435.34375,459.59375 L 435.34375,455.59375 L 415.3125,455.59375 z M 302.65625,466 C 304.70542,470.0929 310.11576,472.32821 321.5,474.5625 L 337.90625,477.75 C 346.02054,479.31275 352.20659,481.73007 356.65625,485.21875 C 352.24766,479.49614 344.81933,475.85178 333.90625,473.75 L 317.5,470.5625 C 310.47223,469.18322 305.74536,467.81653 302.65625,466 z M 459.1875,476.71875 C 459.86403,478.09713 460.25,479.68663 460.25,481.5 L 460.25,533.34375 L 464.25,533.34375 L 464.25,485.5 C 464.25,481.39149 462.40182,478.33583 459.1875,476.71875 z M 504.125,476.71875 C 504.80021,478.09622 505.1875,479.68845 505.1875,481.5 L 505.1875,533.34375 L 509.1875,533.34375 L 509.1875,485.5 C 509.1875,481.39566 507.33327,478.33719 504.125,476.71875 z M 218.9375,476.90625 L 218.9375,494.90625 L 222.9375,494.90625 L 222.9375,480.90625 L 261,480.90625 L 261,476.90625 L 218.9375,476.90625 z M 339.375,498.71875 C 340.454,500.55966 340.96875,502.7109 340.96875,505.28125 C 340.96876,514.06524 332.91649,519.375 319.8125,519.375 C 312.71277,519.375 307.11409,517.95088 303.15625,515.1875 C 306.83969,520.53315 313.84251,523.375 323.8125,523.375 C 336.91649,523.375 344.96876,518.06524 344.96875,509.28125 C 344.96875,504.5572 343.31317,501.22713 339.375,498.71875 z M 242.25,498.90625 C 241.45461,502.59979 240.06978,505.34082 237.6875,508.15625 C 232.50351,514.49224 224.57074,518.21875 216.21875,518.21875 C 209.55819,518.21875 203.61589,515.99346 198.8125,512.03125 C 204.1163,518.47258 211.56147,522.21875 220.21875,522.21875 C 228.57074,522.21875 236.50351,518.49224 241.6875,512.15625 C 244.8555,508.41225 246.26775,504.81024 246.84375,498.90625 L 242.25,498.90625 z M 275.15625,501.96875 C 275.79008,512.9551 279.81046,521.48406 286.875,527.34375 C 282.2959,521.82715 279.65834,514.67158 279.15625,505.96875 L 296.8125,505.96875 C 296.48603,504.71584 296.27822,503.384 296.1875,501.96875 L 275.15625,501.96875 z M 249.4375,523.8125 C 248.59,525.05349 247.72674,526.21902 246.84375,527.3125 L 248.03125,533.65625 L 251.28125,533.65625 L 249.4375,523.8125 z "
       id="text4120" />
  </g>
</svg>
